<?xml version="1.0" encoding="UTF-8" standalone="no"?>
<svg
   xmlns:dc="http://purl.org/dc/elements/1.1/"
   xmlns:cc="http://creativecommons.org/ns#"
   xmlns:rdf="http://www.w3.org/1999/02/22-rdf-syntax-ns#"
   xmlns:svg="http://www.w3.org/2000/svg"
   xmlns="http://www.w3.org/2000/svg"
   viewBox="0 0 154.96001 132.28346"
   height="132.28346"
   width="154.96001"
   xml:space="preserve"
   id="svg2"
   version="1.1"><metadata
     id="metadata8"><rdf:RDF><cc:Work
         rdf:about=""><dc:format>image/svg+xml</dc:format><dc:type
           rdf:resource="http://purl.org/dc/dcmitype/StillImage" /></cc:Work></rdf:RDF></metadata><defs
     id="defs6"><clipPath
       id="clipPath18"
       clipPathUnits="userSpaceOnUse"><path
         id="path16"
         d="M 0.151,0 H 116.22 V 99.212 H 0.151 Z" /></clipPath></defs><g
     transform="matrix(1.3333333,0,0,-1.3333333,0,132.28347)"
     id="g10"><g
       id="g12"><g
         clip-path="url(#clipPath18)"
         id="g14"><g
           transform="translate(152.2059,47.6738)"
           id="g20"><path
             id="path22"
             style="fill:#00548d;fill-opacity:1;fill-rule:nonzero;stroke:none"
             d="m 0,0 c 0.1,9.728 -6.095,6.46 -8.2,11.413 -1.993,4.699 1.675,9.345 -2.478,12.713 -1.478,1.203 -2.811,1.239 -4.474,2.24 -4.424,2.666 -7.69,6.32 -9.391,8.906 -1.645,2.503 0.13,5.01 -1.558,7.62 -0.898,1.387 -2.268,1.662 -2.953,3.144 -0.694,1.506 0.802,2.933 -0.334,4.173 -1.91,2.064 -3.706,3.71 -5.247,8.352 -4.692,14.1 -10.707,12.271 -12.01,13.084 -3.614,2.223 -9.847,4.929 -14.417,6.085 -5.355,1.355 -8.576,1.797 -12.703,1.881 -6.409,0.123 -7.658,-1.985 -8.627,-1.909 -12.574,1.028 -18.389,-2.662 -25.679,-6.145 -9.073,-4.34 -14.015,-12.155 -16.317,-19.228 -1.149,-3.515 -2.18,-5.448 -3.517,-9.075 -0.827,-2.243 -2.243,-3.742 -4.215,-4.746 -1.801,-0.908 -3.041,-1.893 -5.514,-1.976 -2.106,-0.068 -4.842,-1.144 -5.414,-2.228 l 0.146,-3.902 c 0,0 1.19,0.335 3.133,2.053 1.504,1.331 2.841,-0.08 6.241,-0.478 7.966,-0.247 12.328,4.467 12.8,5.463 0.681,1.383 -0.009,5.201 0.881,5.826 l 1.283,0.044 c -0.301,-2.283 0.163,-4.997 -1.742,-7.48 -2.398,-3.112 -5.64,-3.925 -6.526,-4.228 -5.171,-1.761 -7.92,-1.06 -10.514,-0.745 -2.995,0.362 -0.222,-4.105 -8.752,-3.216 -2.87,0.291 -5.794,-2.184 -5.873,-4.468 -0.084,-2.446 0.183,-11.68 0.463,-12.302 l 4.19,-3.503 c 0,0 -0.944,4.544 2.214,3.24 4.403,-1.821 11.994,-0.071 12.712,0.459 -1.6,-1.419 -1.817,-2.997 -3.045,-4.488 -2.724,-3.164 -8.288,-4.949 -6.943,-10.68 2.803,-11.927 -3.029,-11.325 -3.029,-11.325 -3.651,-0.116 -6.337,4.826 -6.337,4.826 l 0.263,-5.273 c -0.046,-2.734 5.431,-8.859 9.212,-7.364 l 2.485,-4.631 c 8.952,-1.399 0.063,-7.887 0.151,-10.27 l 3.722,-7.44 c 0.192,0.606 0.568,7.863 4.24,7.556 3.455,-0.287 3.776,-3.28 3.776,-3.28 -6.333,-4.539 1.324,-12.031 5.832,-14.31 0,0 0.564,0.98 1.587,1.183 -2.23,0.777 -3.638,2.367 -3.204,3.85 0.443,1.518 0.781,1.263 2.085,1.662 1.658,0.502 2.101,0.063 3.63,0.797 1.625,0.781 2.214,-1.411 3.697,-0.985 1.107,0.319 2.795,1.666 4.37,2.678 -2.778,-3.431 -5.197,-8.305 -10.444,-14.98 -1.023,-1.291 -1.111,-11.672 -0.585,-21.671 l 0.092,-1.634 c 0.476,-8.006 1.345,-15.434 2.448,-17.315 0.13,-0.231 -0.71,-0.339 4.729,7.46 l 1.32,1.945 c 5.848,8.835 14.082,19.515 21.932,26.425 l 1.767,10.501 c 0.438,-0.088 0.91,-0.136 1.391,-0.116 l -1.22,-10.373 c 2.323,-0.614 6.55,-5.974 17.583,-18.822 l 1.934,-2.251 c 6.283,-7.293 13.89,-15.199 14.253,-14.665 2.123,3.112 26.414,41.62 26.414,41.62 0,0 -7.135,9.624 -9.244,15.976 2.594,2.435 2.414,0.076 9.194,-4.132 5.247,-3.26 7.332,-0.267 7.332,-0.267 0,0 -4.875,2.746 -4.892,5.519 -0.033,6.129 2.603,5.926 3.973,5.759 3.246,-0.411 1.738,-3.184 1.738,-3.184 l 3.417,0.032 c 0,0 1.119,0.629 1.479,1.327 2.481,4.846 -8.681,7.492 -10.511,9.014 -1.851,1.546 -0.739,4.575 -0.739,4.575 5.765,-6.787 9.411,-5.133 15.348,-3.575 l 6.065,5.822 c -6.441,-0.721 -13.384,-6.224 -18.355,7.911 l 1.224,1.048 c 2.936,-5.029 6.111,-6.962 9.963,-7.173 l 9.056,9.01 c -10.543,-7.006 -9.791,5.978 -9.791,5.978 C -2.243,-6.133 -0.017,-2.02 0,0 m -131.502,-16.375 c 0.159,-4.264 -4.06,-6.623 -7.899,-6.751 0,0 -0.109,0.423 -0.477,0.666 3.839,0.127 7.749,2.048 7.591,6.308 0,0 0.777,0.116 0.785,-0.223 m 45.605,-48.383 1.045,7.436 c 32.17,3.599 38.119,20.44 38.119,20.44 0,0 1.876,2.833 2.185,1.928 4.486,-13.154 12.678,-24.795 12.678,-24.795 l -23.79,-37.986 c -1.283,1.423 -27.467,31.789 -30.237,32.977 m -21.113,17.63 c 2.302,-6.683 10.691,-7.548 13.272,-8.472 0.869,-0.311 2.264,-0.263 2.264,-0.263 l -1.387,-8.453 c -17.516,-18.961 -24.697,-32.395 -24.697,-32.395 -2.519,11.134 -1.487,33.451 -1.487,33.451 0,0 6.446,8.779 12.035,16.132 m 6.538,1.733 c 0.042,-1.135 0.247,-1.857 0.113,-3.004 -0.301,0.721 -1.178,2.319 -1.178,2.319 0.18,0.088 0.835,2.056 0.827,2.299 0.297,1.718 0.881,3.201 2.31,3.659 -0.15,-0.741 -0.71,-1.224 -1.353,-2.571 -0.677,-1.398 -0.761,-1.562 -0.719,-2.702 m 69.087,35.05 c -2.736,-0.259 -4.278,1.905 -4.278,1.905 -3.45,-5.743 -6.701,-2.101 -6.701,-2.101 0.021,4.101 -5.455,-20.814 -6.291,-24.636 -1.566,-2.833 -7.461,-13.015 -25.603,-18.176 l 0.668,0.343 c 1.546,0.845 2.026,2.112 3.112,3.595 0.944,1.283 1.746,1.924 2.235,3.403 0.1,0.303 -0.263,0.845 -0.693,1.518 0.814,0.028 3.459,2.232 4.248,2.985 2.369,2.271 4.403,3.563 6.496,5.906 2.703,3.092 5.18,4.802 7.148,7.875 1.374,2.155 1.863,3.797 2.218,6.491 0.581,3.918 2.394,8.855 2.607,13.008 -1.371,-2.32 -1.943,-3.969 -2.423,-5.771 -0.802,-2.869 -0.923,-4.583 -1.734,-7.209 -0.806,-2.622 -1.099,-4.666 -2.836,-6.595 -1.488,-1.67 -3.075,-2.862 -4.75,-4.057 -4.771,-3.439 -7.866,-8.636 -14.533,-9.959 -3.267,2.319 -7.399,4.651 -8.531,4.515 0,0 -1.474,-0.39 -2.364,-0.422 l -0.38,-2.224 c 0,0 1.324,-0.514 1.286,-0.219 -0.138,1.363 1.132,1.459 1.07,0.805 -0.063,-0.685 1.094,-4.914 -0.744,-7.106 -0.334,-0.398 0.155,5.807 -1.83,5.058 l -0.722,-2.838 -0.919,-0.032 c 0,0 0.167,0.602 0.096,2.391 -0.063,1.726 -0.598,3.188 -3.392,4.543 -0.594,0.287 -0.627,-3.487 -1.199,-4.096 l -2.068,-0.925 c -0.384,1.24 -0.932,2.869 -0.293,2.889 1.926,0.068 1.053,1.602 1.55,2.702 0.318,0.702 0.865,0.893 0.744,1.825 -0.501,3.731 0.067,8.389 -0.572,8.365 -0.531,-0.016 -0.974,-0.283 -1.375,0.04 -0.405,0.335 -0.042,1.279 -0.042,1.279 -2.005,-0.235 -1.169,-8.145 -1.169,-8.145 -0.836,-1.116 -2.586,-2.236 -3.422,-3.033 0,0 -0.614,-0.454 -0.747,-0.398 -2.356,0.016 -4.754,-3.802 -4.754,-3.802 -0.903,-0.192 -4.04,5.156 -4.178,5.061 -0.426,1.777 0.38,0.578 -1.073,4.415 -0.226,1.459 -1.901,7.341 -2.139,7.676 -3.334,3.224 -2.958,17.478 -4.403,21.057 -0.865,2.144 -3.881,2.853 -4.19,5.384 -0.531,4.463 0.25,6.42 1.073,10.437 0.234,1.148 0.038,1.897 0.619,2.945 0.672,1.204 1.416,2.204 2.911,2.268 1.371,0.055 1.659,-1.22 2.816,-1.869 1.002,-0.558 1.454,-1.24 2.611,-1.363 4.227,-0.459 3.818,0.813 3.818,0.813 l 2.064,1.088 c -0.656,0.41 -1.713,-0.307 -2.82,-0.351 -1.262,-0.048 -2.03,-0.136 -3.213,0.235 -1.211,0.379 -3.496,1.096 -2.544,1.877 0.66,0.542 1.041,-0.988 2.294,-0.096 0,0 -2.022,1.646 -1.387,2.941 -0.41,0.387 0.192,0.917 0.685,1.216 0.426,0.259 0.911,0.287 1.27,0.299 0,0 -0.514,-1.79 -0.084,-2.818 0.489,-1.163 1.387,-1.733 2.737,-2.04 0.823,-0.183 1.378,-0.096 2.189,0.159 1.19,0.375 2.076,0.837 2.301,2.037 0.142,0.733 0.05,1.195 0.301,1.889 0,0 0.773,-1.084 1.525,-1.742 0.48,-0.414 -0.013,-1.004 0.33,-1.526 0.238,-0.359 0.501,-0.518 0.94,-0.65 0.614,-0.175 1.132,-0.139 2.172,0.753 0.176,0.331 0.292,0.499 0.059,0.941 -0.493,0.928 -1.162,-0.889 -4.504,3.009 -0.76,0.88 -1.616,0.98 -2.794,1.271 -1.421,0.347 -2.214,0.438 -3.764,0.215 -0.405,-0.139 -0.497,0.028 -0.936,0.737 0,0 0.368,0.447 0.706,0.622 1.867,0.964 4.487,-0.104 5.468,0.693 -1.474,0.291 -0.777,0.614 -1.399,0.722 -2.122,0.354 -1.563,0.203 -4.854,0.091 0,0 -1.914,-0.318 -3.067,-1.295 -1.011,-0.853 -2.21,-2.291 -2.21,-2.291 -0.442,-0.227 -0.806,0.673 -0.944,0.825 0,0 1.082,2.379 2.344,3.491 1.303,1.139 2.511,1.442 4.048,2.092 1.378,0.586 2.364,-0.136 3.856,-0.383 1.625,-0.267 2.314,-0.605 4.068,-1.056 1.187,-0.311 1.011,-1.717 2.185,-2.148 0.301,-0.111 0.589,0.06 0.823,-0.143 0.276,-0.227 0.176,-0.594 -0.054,-0.853 -0.514,-0.566 -1.274,0.112 -2.03,0.359 -0.443,0.143 -0.564,0.498 -1.024,0.562 -0.326,0.039 -0.501,-0.076 -0.827,-0.108 -1.09,-0.14 1.404,-0.925 2.168,-1.642 0.898,-0.845 0.773,-2.012 2.01,-2.403 0.58,-0.183 1.044,0.171 1.558,-0.12 0.635,-0.354 0.639,-0.932 0.702,-1.598 0.025,-0.282 0.041,-0.53 0.016,-0.765 -0.05,-1.925 -1.52,-2.554 -1.921,-2.961 -1.4,-1.43 -0.631,-7.575 -0.443,-10.253 0,0 -3.589,-5.966 -1.124,-8.967 0.765,-0.932 0.76,-0.956 2.824,-2.67 0,0 -1.466,-4.057 -2.565,-4.312 -1.003,0.207 -6.517,-1.654 -7.657,-5.268 l -0.138,-0.98 c 0.012,-0.371 -2.841,-0.554 -4.946,1.299 -0.589,0.514 -1.003,-3.714 -0.1,-6.042 0.401,-1.124 1.023,-3.216 4.085,-2.459 1.04,0.056 3.196,0.455 3.944,1.264 0.183,-0.18 5.18,-2.834 7.26,-2.762 2.724,0.088 3.81,1.698 3.797,2.068 0,0 -1.103,0.048 -2.372,-0.075 -4.429,-0.447 -4.099,1.904 -4.099,1.904 1.697,0.997 1.872,1.24 3.952,0.937 1.663,-0.239 1.918,-0.339 2.929,-0.825 0.196,-0.024 0.735,-0.02 0.998,0.064 1.349,0.45 2.766,1.307 5.903,0.797 0.714,-0.116 3.187,-1.626 5.819,-0.658 l -0.76,0.307 1.366,-0.032 -0.606,-0.275 c 1.462,-0.53 0.794,0.156 2.532,0.084 2.293,-0.096 1.374,-4.989 7.022,-4.204 2.548,0.354 2.043,9.114 2.043,9.114 l -1.191,-0.04 c 0.025,-2.985 -0.986,-4.99 -1.805,-5.053 -1.821,-0.148 -1.825,1.865 -5.543,3.359 0,0 -1.274,1.542 0.472,1.347 1.379,-0.155 1.516,-2.554 4.967,-1.785 l 0.029,2.67 c -5.217,-0.176 -5.176,4.503 -10.748,4.419 -1.876,-0.036 0.605,-1.522 -1.68,-1.677 -1.549,-0.116 -0.71,0.812 -3.417,0.398 -0.731,-0.112 -1.909,1.634 -1.746,2.722 0.155,1.032 1.182,0.315 1.412,1.327 0,0 -1.303,3.654 1.266,3.483 1.245,-0.08 3.517,-3.463 4.741,0.502 0.643,0.024 -0.551,0.151 -0.551,0.151 -0.322,0.275 -0.23,-1.299 -1.254,-0.808 -1.679,0.797 -1.065,1.498 -3.705,1.239 -3.852,-0.371 -2.74,-3.989 -3.814,-3.284 -5.727,3.738 -8.175,5.787 -4.662,12.219 l 0.501,-1.268 c -0.229,3.834 -0.735,10.218 0.109,12.119 0.359,0.809 0.501,2.339 0.706,3.527 0.656,3.786 0.627,8.201 -0.79,8.667 -4.398,1.475 -3.337,5.356 -7.887,5.859 l -8.338,-0.232 c 0,0 -1.169,4.543 4.27,6.09 0,0 -0.635,6.129 1.178,7.719 1.42,1.239 4.031,-0.04 2.97,4.021 -0.201,0.737 -0.715,0.693 -1.145,1.156 -1.002,1.076 -1.483,0.462 -2.481,2.821 -0.639,1.498 2.966,3.85 2.966,3.85 12.703,-1.965 17.002,8.556 17.002,8.556 4.716,-8.106 15.256,-7.205 15.256,-7.205 2.536,-0.08 5.259,-0.152 7.724,-2.993 1.692,-1.953 2.039,-3.4 4.708,-4.715 2.77,-1.374 5.067,0.331 5.067,0.331 -2.911,0.223 -4.946,1.726 -6.186,4.037 -4.495,8.373 -8.819,7.895 -10.039,7.552 1.09,0.486 1.011,1.526 4.879,1.032 5.619,-0.725 8.368,-9.728 11.981,-10.166 5.519,-0.669 5.381,-1.594 4.09,-6.416 -1.608,-6.026 -1.901,-11.545 -0.054,-18.599 1.123,-4.28 4.386,-6.013 4.779,-10.417 0.618,-6.978 -2.54,-9.165 -0.126,-16.554 1.651,-5.065 -1.069,-10.788 4.884,-13.486 l 0.697,0.873 c -5.781,3.053 -2.109,7.779 -2.109,7.779 -0.059,-8.361 7.097,-8.807 7.097,-8.807 -2.377,1.542 -0.468,2.714 -0.468,2.714 3.079,0.956 4.775,-4.376 0.903,-4.746 M -91.549,-12.9 c 0.969,0.961 0.389,1.746 1.032,1.658 0.819,-0.112 1.374,-1.606 1.374,-1.606 0,0 0.046,-0.61 1.049,-1.49 1.065,-0.937 4.173,-1.076 5.594,-1.694 l 2.966,-3.252 c -1.417,0.175 -2.603,0.849 -3.526,1.359 -4.136,2.483 -7.148,-0.646 -7.148,-0.646 -2.719,2.431 -3.872,1.822 -8.772,-0.609 -1.362,-0.678 -2.198,0.41 -0.844,0.617 0.38,0.184 1.896,2.969 2.928,3.208 1.613,0.379 3.952,1.068 5.347,2.455 m -15.16,34.539 c 0,0 0.915,-0.354 1.22,-0.809 0.184,-0.295 0.209,-0.849 0.209,-0.849 -0.48,-0.701 -2.314,0.777 -1.429,1.658 m 4.211,-0.199 -0.505,-1.128 -0.042,1.108 z m 50.368,2.885 c 0.1,-0.335 -1.851,3.037 -2.599,3.965 -1.119,1.343 -1.667,1.335 -2.694,2.591 -0.564,0.757 -1.496,3.204 -2.473,3.267 -3.029,0.204 -5.072,-1.522 -6.617,-1.637 -0.848,-0.056 0.622,0.948 0.622,0.948 0.259,0.773 -5.322,1.016 -5.322,1.016 0,0 -4.123,0.012 -4.361,-1.781 l 0.008,-0.682 3.421,-0.545 c 1.471,-0.403 1.738,0.115 3.48,-0.112 l 3.204,0.056 2.841,0.817 1.508,-0.132 c 0.455,0.012 0.898,-0.606 1.07,-0.928 1.044,-1.945 2.134,-2.176 3.68,-3.595 2.937,-2.706 2.962,-3.782 4.232,-3.248 m -22.864,6.161 c -0.818,0.072 -1.424,-1.988 -3.525,-2.192 -2.824,-0.283 -3.877,1.806 -4.825,3.579 0.092,0.171 -0.301,1.785 -0.393,1.953 l -0.731,-0.351 c 0.05,-2.813 1.203,-6.121 4.144,-7.002 l 0.042,-2.391 0.915,0.1 c 0.363,0.008 0.438,1.124 0.789,1.805 0.092,0.175 1.27,1.048 2.177,1.235 1.282,0.192 2.74,0.475 4.474,0.502 l -0.017,1.025 -2.105,-0.036 -0.732,0.327 0.439,1.032 c -0.092,0.167 -0.38,0.394 -0.652,0.414 M -80.416,3.491 -81.243,3.463 c 0.054,-0.51 0.226,-0.777 0.414,-1.263 0.284,-0.737 -0.326,-1.12 1.069,-1.758 l 0.088,-2.387 0.793,-0.012 L -79,1.196 -79.693,1.128 Z m 1.692,15.167 c 0.004,-0.346 -0.079,-0.773 0.025,-1.283 l 2.014,-0.052 -0.289,0.682 c 0,0 0.084,0.422 0.08,0.681 l 0.818,0.355 c 1.099,-0.152 1.55,-2.435 3.827,-2.052 0.092,0.019 -0.054,0.753 -0.054,0.753 -2.11,0.39 -2.219,1.494 -2.219,1.494 1.513,2.331 4.078,2.375 4.082,1.949 l -0.259,-1.024 c 0.042,-2.304 0.626,-4.34 3.459,-4.288 2.009,0.032 3.638,1.084 4.161,2.714 0.467,-0.243 0.873,-0.793 1.119,-1.343 0.384,-0.845 0.017,-0.937 0.033,-1.618 0,-0.259 -1.094,-0.192 -0.71,-1.379 l 1.37,-0.056 1.07,1.634 c -0.033,2.132 -2.377,5.416 -4.771,6.225 -0.735,0.243 -1.934,0.733 -3.308,0.793 l -2.92,-0.052 c -0.827,-0.096 -2.001,-0.885 -2.001,-0.885 -1.416,-0.358 -1.299,1.168 -1.299,1.168 0.622,0.813 0.71,1.036 3.258,1.765 l 3.388,0.231 c -0.155,0.267 0.2,0.941 0.2,0.941 -6.316,-0.024 -8.284,-2.586 -8.676,-2.969 -0.18,-0.171 -1.262,-1.471 -1.249,-1.722 0,-0.087 1.186,-0.239 1.186,-0.239 l 0.355,0.69 c 0.464,-0.08 1.103,0.02 1.107,-0.407 0.017,-1.024 -0.81,-0.613 -0.789,-1.805 l -0.736,-0.012 c -1.094,-0.02 -2.293,0.299 -2.272,-0.889 m 13.05,0.893 -1.738,-0.028 -0.016,0.937 1.738,0.031 z m -3.287,0.809 c 0,0 -0.406,-3.077 2.514,-2.77 l -0.451,-0.35 c -3.012,-0.22 -2.519,2.769 -2.063,3.12 m -2.879,-4.898 -1.896,-0.032 0.017,-0.765 1.278,0.024 0.021,-1.128 0.727,0.012 z m 11.284,5.472 c 1.387,-5.946 5.501,-6.125 5.501,-6.125 l 0.798,0.797 c 0,0 -4.127,0.183 -5.51,6.125 -0.334,-0.179 -0.789,-0.797 -0.789,-0.797 m 7.402,0.39 c -0.012,0.678 -0.1,0.849 -0.205,1.614 l -0.63,-0.693 c -0.418,0.123 -1.028,1.614 -1.559,2.192 l -1.14,-0.192 c 0.48,-1.354 2.143,-1.749 1.796,-2.869 -0.054,-0.183 1.195,-0.406 1.738,-0.052 m -30.291,-45.231 c -0.008,0.255 -0.643,0.148 -0.914,0.14 -0.372,-0.012 -0.502,-0.817 -0.807,-0.626 -0.747,0.49 -1.6,1.231 -1.633,2.252 l -2.289,-0.076 c -0.025,0.594 -1.442,0.223 -1.237,-0.582 0.276,0.012 1.354,-0.1 1.349,0.072 0.949,-0.992 1.956,-1.044 2.352,-1.714 0.581,-1.004 0.259,-2.124 1.099,-2.606 0.196,2.056 2.139,1.69 2.08,3.14" /></g></g></g></g></svg>