<?xml version="1.0" encoding="UTF-8" standalone="no"?>
<svg
   xmlns:dc="http://purl.org/dc/elements/1.1/"
   xmlns:cc="http://creativecommons.org/ns#"
   xmlns:rdf="http://www.w3.org/1999/02/22-rdf-syntax-ns#"
   xmlns:svg="http://www.w3.org/2000/svg"
   xmlns="http://www.w3.org/2000/svg"
   viewBox="0 0 375.25867 185.72932"
   height="185.72932"
   width="375.25867"
   xml:space="preserve"
   id="svg2"
   version="1.1"><metadata
     id="metadata8"><rdf:RDF><cc:Work
         rdf:about=""><dc:format>image/svg+xml</dc:format><dc:type
           rdf:resource="http://purl.org/dc/dcmitype/StillImage" /></cc:Work></rdf:RDF></metadata><defs
     id="defs6"><clipPath
       id="clipPath18"
       clipPathUnits="userSpaceOnUse"><path
         id="path16"
         d="M 0,139.297 H 281.444 V 0 H 0 Z" /></clipPath><clipPath
       id="clipPath34"
       clipPathUnits="userSpaceOnUse"><path
         id="path32"
         d="M 0,139.297 H 281.444 V 0 H 0 Z" /></clipPath></defs><g
     transform="matrix(1.3333333,0,0,-1.3333333,0,185.72933)"
     id="g10"><g
       id="g12"><g
         clip-path="url(#clipPath18)"
         id="g14"><text
           id="text22"
           style="font-variant:normal;font-weight:normal;font-stretch:normal;font-size:23.3260994px;font-family:'Tw Cen MT';-inkscape-font-specification:TwCenMT-Regular;writing-mode:lr-tb;fill:#1b365d;fill-opacity:1;fill-rule:nonzero;stroke:none"
           transform="matrix(0.94241215,0,0,-1,0,4.4805)"><tspan
             id="tspan20"
             y="0"
             x="0 14.088964 24.305796 30.627169 42.290218 52.50705 64.170097 79.728607 91.391663 101.60849 109.37608 114.99767 132.9821 143.19893 148.30734 154.62872 159.73714 167.50473 179.16777 189.38461 197.15219 208.81525 222.81091 234.47395 246.13701 253.9046 260.22598 271.88901 287.44754">Autonomous MultisensorSystems</tspan></text>
</g></g><g
       transform="translate(74.1411,74.813)"
       id="g24"><path
         id="path26"
         style="fill:#4e769b;fill-opacity:1;fill-rule:nonzero;stroke:none"
         d="m 0,0 h -23.063 l -8.63,-20 H 8.673 Z" /></g><g
       id="g28"><g
         clip-path="url(#clipPath34)"
         id="g30"><g
           transform="translate(267.5503,90.0977)"
           id="g36"><path
             id="path38"
             style="fill:#4e769b;fill-opacity:1;fill-rule:nonzero;stroke:none"
             d="m 0,0 c -3.386,2.123 -7.348,3.147 -11.344,3.147 h -0.004 L -42.11,3.146 c -0.856,0 -1.595,0.597 -1.775,1.433 l -0.138,0.646 -11.363,31.681 c -1.86,6.947 -8.048,11.731 -15.316,11.731 -7.434,0 -13.736,-5.003 -15.436,-12.206 l -18.056,-66.605 -18.057,66.605 c -1.701,7.203 -8.002,12.206 -15.436,12.206 -7.367,0 -13.623,-4.915 -15.389,-12.015 l -14.271,-46.656 9.294,-21.431 c 4.4,2.99 7.724,7.521 9.018,12.923 l 11.115,36.335 18.29,-67.466 c 1.7,-7.203 8.002,-12.206 15.436,-12.206 7.433,0 13.735,5.003 15.435,12.206 l 18.587,68.561 6.91,-19.267 c 2.427,-9.591 11.201,-16.475 21.153,-16.475 l 30.763,10e-4 c 0.621,0 1.04,-0.289 1.283,-0.531 0.243,-0.242 0.532,-0.662 0.532,-1.284 v -21.69 c 0,-0.998 -0.818,-1.816 -1.816,-1.816 h -57.902 c -0.903,0 -1.694,-0.604 -1.931,-1.476 l -4.338,-16 c -0.344,-1.272 0.614,-2.524 1.931,-2.524 h 62.24 c 12.048,0 21.816,9.768 21.816,21.816 v 21.69 C 10.469,-11.138 6.679,-4.189 0,0" /></g><g
           transform="translate(215.0288,127.9038)"
           id="g40"><path
             id="path42"
             style="fill:#1b365d;fill-opacity:1;fill-rule:nonzero;stroke:none"
             d="M 0,0 3.086,-8.606 H 59.52 c 0.878,0 1.655,0.574 1.912,1.415 l 4.894,16 c 0.393,1.285 -0.568,2.585 -1.913,2.585 H 2.008 c -2.962,0 -5.786,-0.596 -8.363,-1.67 C -3.354,7.318 -1.094,3.979 0,0" /></g><g
           transform="translate(145,39.7354)"
           id="g44"><path
             id="path46"
             style="fill:#1b365d;fill-opacity:1;fill-rule:nonzero;stroke:none"
             d="m 0,0 -2.336,8.616 h -31.978 l -34.818,80.289 c -2.165,6.501 -7.322,10.657 -13.309,10.657 -0.004,0 -0.009,0 -0.014,-10e-4 -5.996,-0.006 -11.154,-4.18 -13.309,-10.698 l -42.05,-97.454 c -0.57,-1.32 0.398,-2.793 1.836,-2.793 h 17.426 c 0.799,0 1.52,0.475 1.837,1.208 l 34.288,79.468 34.465,-79.471 c 0.316,-0.731 1.037,-1.205 1.834,-1.205 H -25.641 7.91 C 4.03,-8.811 1.137,-4.814 0,0" /></g></g></g></g></svg>