<?xml version="1.0" encoding="UTF-8" standalone="no"?>
<svg
   xmlns:dc="http://purl.org/dc/elements/1.1/"
   xmlns:cc="http://creativecommons.org/ns#"
   xmlns:rdf="http://www.w3.org/1999/02/22-rdf-syntax-ns#"
   xmlns:svg="http://www.w3.org/2000/svg"
   xmlns="http://www.w3.org/2000/svg"
   viewBox="0 0 604.724 41.574799"
   height="41.574799"
   width="604.724"
   xml:space="preserve"
   id="svg2"
   version="1.1"><metadata
     id="metadata8"><rdf:RDF><cc:Work
         rdf:about=""><dc:format>image/svg+xml</dc:format><dc:type
           rdf:resource="http://purl.org/dc/dcmitype/StillImage" /></cc:Work></rdf:RDF></metadata><defs
     id="defs6"><clipPath
       id="clipPath18"
       clipPathUnits="userSpaceOnUse"><path
         id="path16"
         d="M 0,31.181 H 453.543 V 0 H 0 Z" /></clipPath></defs><g
     transform="matrix(1.3333333,0,0,-1.3333333,0,41.5748)"
     id="g10"><g
       id="g12"><g
         clip-path="url(#clipPath18)"
         id="g14"><g
           transform="translate(375.5975,6.119)"
           id="g20"><path
             id="path22"
             style="fill:#ffffff;fill-opacity:1;fill-rule:nonzero;stroke:none"
             d="m 0,0 c 0.007,-0.179 0.014,-0.362 0.024,-0.562 l 0.013,-0.245 c 0.126,-2.186 0.33,-2.728 0.445,-2.95 0.164,-0.354 0.502,-0.61 0.911,-0.654 0.041,-0.004 0.081,-0.006 0.122,-0.006 0.472,0 0.898,0.295 1.062,0.74 0.03,0.06 0.155,0.291 0.543,0.875 l 0.195,0.298 C 3.895,-1.585 4.526,-0.72 5.129,0 Z" /></g><g
           transform="translate(381.6304,6.119)"
           id="g24"><path
             id="path26"
             style="fill:#ffffff;fill-opacity:1;fill-rule:nonzero;stroke:none"
             d="m 0,0 c 0.17,-0.207 0.355,-0.434 0.549,-0.672 l 0.95,-1.162 c 2.105,-2.563 2.388,-2.563 2.857,-2.563 0.384,0 0.749,0.198 0.958,0.52 0.18,0.276 1.366,2.238 2.355,3.877" /></g><g
           transform="translate(375.6218,5.5571)"
           id="g28"><path
             id="path30"
             style="fill:#0068b4;fill-opacity:1;fill-rule:nonzero;stroke:none"
             d="M 0,0 C -0.002,0.04 -0.003,0.073 -0.005,0.112 H -375.622 V -0.951 H 0.061 c -0.017,0.217 -0.033,0.445 -0.048,0.706 z" /></g><g
           transform="translate(381.9976,5.6693)"
           id="g32"><path
             id="path34"
             style="fill:#0068b4;fill-opacity:1;fill-rule:nonzero;stroke:none"
             d="m 0,0 h -1.634 c -0.263,-0.335 -0.528,-0.688 -0.79,-1.063 h 3.293 l -0.687,0.84 C 0.118,-0.144 0.062,-0.076 0,0" /></g><g
           transform="translate(389.0278,5.6693)"
           id="g36"><path
             id="path38"
             style="fill:#0068b4;fill-opacity:1;fill-rule:nonzero;stroke:none"
             d="M 0,0 C -0.214,-0.355 -0.431,-0.714 -0.642,-1.063 H 64.515 V 0 Z" /></g><g
           transform="translate(442.2486,9.6011)"
           id="g40"><path
             id="path42"
             style="fill:#0068b4;fill-opacity:1;fill-rule:nonzero;stroke:none"
             d="m 0,0 v 17.703 c 0,0.587 -0.476,1.063 -1.063,1.063 h -49.682 c 2.737,-2.363 4.479,-5.904 4.479,-9.864 0,-4.016 -1.79,-7.602 -4.595,-9.965 H -1.063 C -0.476,-1.063 0,-0.587 0,0 m -68.225,18.766 h -7.353 c -0.586,0 -1.062,-0.476 -1.062,-1.063 L -76.64,0 c 0,-0.587 0.476,-1.063 1.062,-1.063 h 7.469 c -2.805,2.363 -4.595,5.949 -4.595,9.965 0,3.96 1.741,7.501 4.479,9.864" /></g><g
           transform="translate(400.1396,24.3654)"
           id="g44"><path
             id="path46"
             style="fill:#ffffff;fill-opacity:1;fill-rule:nonzero;stroke:none"
             d="m 0,0 c 0,-0.633 0.112,-0.955 0.464,-0.955 0.371,0 0.469,0.371 0.469,0.955 0,0.539 -0.083,0.966 -0.469,0.966 C 0.048,0.966 0,0.498 0,0 m -0.416,-0.011 c 0,0.85 0.296,1.296 0.884,1.296 0.577,0 0.877,-0.424 0.877,-1.296 0,-0.854 -0.296,-1.274 -0.877,-1.274 -0.584,0 -0.884,0.412 -0.884,1.274 M 3.41,1.262 H 1.949 C 1.9,1.262 1.855,1.221 1.855,1.172 V 0.989 C 1.855,0.94 1.9,0.903 1.949,0.903 h 0.532 v -2.075 c 0,-0.049 0.041,-0.09 0.09,-0.09 h 0.217 c 0.049,0 0.09,0.041 0.09,0.09 V 0.903 H 3.41 c 0.049,0 0.086,0.037 0.086,0.086 v 0.183 c 0,0.049 -0.037,0.09 -0.086,0.09 M 4.14,0.903 h 0.531 v -2.075 c 0,-0.049 0.042,-0.09 0.09,-0.09 h 0.218 c 0.048,0 0.089,0.041 0.089,0.09 V 0.903 H 5.6 c 0.049,0 0.086,0.037 0.086,0.086 v 0.183 c 0,0.049 -0.037,0.09 -0.086,0.09 H 4.14 C 4.091,1.262 4.046,1.221 4.046,1.172 V 0.989 C 4.046,0.94 4.091,0.903 4.14,0.903 M 6.652,0 c 0,-0.633 0.112,-0.955 0.464,-0.955 0.371,0 0.469,0.371 0.469,0.955 0,0.539 -0.083,0.966 -0.469,0.966 C 6.701,0.966 6.652,0.498 6.652,0 M 6.236,-0.011 c 0,0.85 0.296,1.296 0.884,1.296 0.577,0 0.877,-0.424 0.877,-1.296 0,-0.854 -0.296,-1.274 -0.877,-1.274 -0.584,0 -0.884,0.412 -0.884,1.274 m 4.698,-1.169 c 0.015,-0.048 0.063,-0.082 0.112,-0.082 h 0.285 c 0.048,0 0.097,0.034 0.112,0.082 l 0.671,2.341 c 0.014,0.053 -0.015,0.101 -0.071,0.101 h -0.225 c -0.06,0 -0.098,-0.033 -0.113,-0.093 l -0.431,-1.693 c -0.029,-0.12 -0.056,-0.318 -0.078,-0.491 -0.015,0.173 -0.049,0.371 -0.079,0.491 l -0.43,1.696 c -0.016,0.06 -0.057,0.09 -0.117,0.09 h -0.258 c -0.056,0 -0.086,-0.048 -0.071,-0.104 z M 14.086,0 c 0,0.539 -0.083,0.966 -0.469,0.966 -0.415,0 -0.464,-0.468 -0.464,-0.966 0,-0.633 0.112,-0.955 0.464,-0.955 0.371,0 0.469,0.371 0.469,0.955 m -0.465,-1.285 c -0.584,0 -0.884,0.412 -0.884,1.274 0,0.85 0.296,1.296 0.884,1.296 0.577,0 0.877,-0.424 0.877,-1.296 0,-0.854 -0.296,-1.274 -0.877,-1.274 m 3.37,2.547 H 16.8 c -0.049,0 -0.09,-0.041 -0.09,-0.086 l 0.003,-1.457 c 0,-0.176 0.019,-0.408 0.038,-0.603 -0.053,0.184 -0.098,0.367 -0.165,0.532 l -0.633,1.547 c -0.019,0.041 -0.071,0.067 -0.12,0.067 h -0.352 c -0.049,0 -0.09,-0.037 -0.09,-0.086 v -2.352 c 0,-0.045 0.041,-0.086 0.09,-0.086 h 0.199 c 0.048,0 0.09,0.041 0.09,0.086 l -0.004,1.483 c 0,0.139 -0.034,0.439 -0.053,0.63 0.049,-0.191 0.098,-0.401 0.165,-0.559 l 0.66,-1.569 c 0.018,-0.045 0.052,-0.071 0.101,-0.071 h 0.352 c 0.048,0 0.093,0.041 0.093,0.086 v 2.352 c 0,0.045 -0.045,0.086 -0.093,0.086 m 4.143,-1.067 h -0.633 c -0.049,0 -0.09,-0.041 -0.09,-0.09 v -0.176 c 0,-0.049 0.041,-0.09 0.09,-0.09 h 0.33 v -0.738 c -0.075,-0.022 -0.154,-0.034 -0.24,-0.034 -0.397,0 -0.633,0.24 -0.633,0.914 0,0.66 0.203,0.952 0.603,0.952 0.195,0 0.326,-0.045 0.457,-0.109 0.045,-0.022 0.09,0 0.109,0.041 l 0.075,0.161 c 0.022,0.045 0.007,0.091 -0.042,0.117 -0.164,0.086 -0.378,0.142 -0.599,0.142 -0.651,0 -1.026,-0.498 -1.026,-1.277 0,-0.809 0.307,-1.293 1.019,-1.293 0.202,0 0.412,0.038 0.554,0.09 0.09,0.034 0.116,0.072 0.116,0.158 v 1.142 c 0,0.049 -0.041,0.09 -0.09,0.09 m 1.957,-1.48 c 0.539,0 0.824,0.285 0.824,0.806 v 1.652 c 0,0.056 -0.037,0.09 -0.09,0.09 h -0.213 c -0.056,0 -0.094,-0.031 -0.094,-0.09 v -1.634 c 0,-0.382 -0.157,-0.494 -0.434,-0.494 -0.308,0 -0.416,0.187 -0.416,0.517 v 1.611 c 0,0.059 -0.034,0.09 -0.09,0.09 h -0.217 c -0.053,0 -0.086,-0.034 -0.086,-0.09 v -1.652 c 0,-0.51 0.262,-0.806 0.816,-0.806 m 3.268,0.113 v 0.183 c 0,0.049 -0.045,0.09 -0.094,0.09 h -0.883 v 0.802 h 0.764 c 0.049,0 0.093,0.041 0.093,0.093 v 0.158 c 0,0.048 -0.044,0.086 -0.093,0.086 h -0.764 v 0.67 h 0.854 c 0.052,0 0.089,0.045 0.089,0.094 v 0.169 c 0,0.048 -0.041,0.089 -0.089,0.089 h -1.162 c -0.048,0 -0.09,-0.041 -0.09,-0.089 v -2.345 c 0,-0.049 0.042,-0.09 0.09,-0.09 h 1.191 c 0.049,0 0.094,0.041 0.094,0.09 m 1.343,1.348 h 0.3 c 0.258,0 0.412,0.158 0.412,0.394 0,0.179 -0.12,0.344 -0.371,0.344 h -0.341 z m -0.397,-1.352 v 2.348 c 0,0.049 0.041,0.09 0.09,0.09 h 0.659 c 0.633,0 0.764,-0.389 0.764,-0.64 0,-0.296 -0.164,-0.558 -0.55,-0.618 0.18,-0.037 0.322,-0.195 0.401,-0.36 0.06,-0.127 0.206,-0.49 0.314,-0.79 0.026,-0.067 0.015,-0.116 -0.064,-0.116 h -0.273 c -0.052,0 -0.093,0.015 -0.112,0.079 -0.086,0.258 -0.15,0.524 -0.255,0.722 -0.086,0.165 -0.199,0.315 -0.423,0.315 h -0.154 v -1.03 c 0,-0.045 -0.041,-0.086 -0.09,-0.086 h -0.217 c -0.049,0 -0.09,0.041 -0.09,0.086 m 2.624,-0.086 h 0.232 c 0.049,0 0.09,0.041 0.09,0.09 v 2.345 c 0,0.048 -0.041,0.089 -0.09,0.089 h -0.232 c -0.049,0 -0.09,-0.041 -0.09,-0.089 v -2.345 c 0,-0.049 0.041,-0.09 0.09,-0.09 m 2.261,-0.023 c 0.206,0 0.36,0.042 0.49,0.109 0.034,0.015 0.057,0.06 0.034,0.109 l -0.082,0.18 c -0.015,0.037 -0.06,0.052 -0.105,0.033 -0.075,-0.033 -0.202,-0.071 -0.292,-0.071 -0.363,0 -0.611,0.266 -0.611,0.933 0,0.663 0.233,0.929 0.611,0.929 0.105,0 0.194,-0.027 0.277,-0.064 0.049,-0.023 0.086,-0.008 0.108,0.033 l 0.079,0.154 c 0.026,0.049 0.008,0.098 -0.037,0.124 -0.139,0.082 -0.311,0.101 -0.457,0.101 -0.607,0 -1,-0.498 -1,-1.274 0,-0.835 0.371,-1.296 0.985,-1.296 m 2.601,0.023 h 0.304 c 0.063,0 0.086,0.045 0.048,0.105 l -0.805,1.292 0.73,1.023 c 0.03,0.044 0.027,0.104 -0.049,0.104 h -0.284 c -0.057,0 -0.09,-0.015 -0.12,-0.06 L 33.956,0.203 v 0.969 c 0,0.049 -0.041,0.09 -0.09,0.09 h -0.218 c -0.048,0 -0.089,-0.041 -0.089,-0.09 v -2.348 c 0,-0.045 0.041,-0.086 0.089,-0.086 h 0.218 c 0.049,0 0.09,0.041 0.09,0.086 v 1.225 l 0.708,-1.244 c 0.03,-0.052 0.071,-0.067 0.127,-0.067 m 1.247,0 h 1.191 c 0.049,0 0.094,0.041 0.094,0.09 v 0.183 c 0,0.049 -0.045,0.09 -0.094,0.09 h -0.884 v 0.802 h 0.764 c 0.049,0 0.094,0.041 0.094,0.093 v 0.158 c 0,0.048 -0.045,0.086 -0.094,0.086 h -0.764 v 0.67 h 0.854 c 0.053,0 0.09,0.045 0.09,0.094 v 0.169 c 0,0.048 -0.041,0.089 -0.09,0.089 h -1.161 c -0.049,0 -0.09,-0.041 -0.09,-0.089 v -2.345 c 0,-0.049 0.041,-0.09 0.09,-0.09 M 13.141,-3.925 h -0.352 c -0.095,0 -0.154,-0.053 -0.177,-0.148 l -0.677,-2.66 c -0.047,-0.189 -0.088,-0.501 -0.124,-0.772 -0.023,0.271 -0.076,0.583 -0.124,0.772 l -0.676,2.666 c -0.024,0.094 -0.089,0.142 -0.183,0.142 h -0.406 c -0.088,0 -0.135,-0.077 -0.112,-0.165 l 1.089,-3.673 c 0.024,-0.077 0.1,-0.13 0.177,-0.13 h 0.447 c 0.077,0 0.153,0.053 0.177,0.13 l 1.054,3.679 c 0.023,0.082 -0.024,0.159 -0.113,0.159 m -4.4,0 H 8.376 C 8.3,-3.925 8.235,-3.99 8.235,-4.067 v -3.685 c 0,-0.076 0.065,-0.141 0.141,-0.141 h 0.365 c 0.077,0 0.141,0.065 0.141,0.141 v 3.685 c 0,0.077 -0.064,0.142 -0.141,0.142 M 26.52,-7.752 v 3.685 c 0,0.077 -0.065,0.142 -0.141,0.142 h -0.365 c -0.077,0 -0.142,-0.065 -0.142,-0.142 v -3.685 c 0,-0.076 0.065,-0.141 0.142,-0.141 h 0.365 c 0.076,0 0.141,0.065 0.141,0.141 m -6.467,2.738 c 0,0.282 -0.189,0.541 -0.583,0.541 h -0.536 v -1.16 h 0.471 c 0.406,0 0.648,0.248 0.648,0.619 m 0.894,-2.696 c 0.042,-0.106 0.024,-0.183 -0.1,-0.183 h -0.429 c -0.083,0 -0.148,0.024 -0.177,0.124 -0.135,0.406 -0.235,0.824 -0.4,1.136 -0.136,0.259 -0.312,0.494 -0.665,0.494 h -0.242 v -1.618 c 0,-0.071 -0.065,-0.136 -0.141,-0.136 h -0.341 c -0.077,0 -0.142,0.065 -0.142,0.136 v 3.69 c 0,0.077 0.065,0.142 0.142,0.142 h 1.036 c 0.994,0 1.2,-0.613 1.2,-1.007 0,-0.465 -0.259,-0.877 -0.865,-0.971 0.283,-0.059 0.506,-0.307 0.63,-0.565 0.094,-0.201 0.324,-0.771 0.494,-1.242 m 1.256,-0.047 c 0.247,-0.095 0.617,-0.171 0.959,-0.171 0.818,0 1.301,0.476 1.301,1.165 0,0.624 -0.359,0.895 -0.777,1.089 l -0.318,0.147 c -0.312,0.148 -0.577,0.266 -0.577,0.577 0,0.324 0.195,0.518 0.577,0.518 0.265,0 0.424,-0.059 0.612,-0.123 0.077,-0.024 0.141,0.017 0.159,0.088 l 0.065,0.265 c 0.017,0.071 -0.006,0.147 -0.077,0.171 -0.2,0.07 -0.489,0.141 -0.771,0.141 -0.753,0 -1.201,-0.465 -1.201,-1.089 0,-0.571 0.33,-0.818 0.695,-0.989 l 0.241,-0.112 c 0.365,-0.171 0.73,-0.329 0.73,-0.73 0,-0.365 -0.282,-0.559 -0.671,-0.559 -0.294,0 -0.565,0.088 -0.789,0.171 -0.082,0.029 -0.158,-0.012 -0.176,-0.089 l -0.071,-0.294 c -0.017,-0.071 0.012,-0.147 0.089,-0.176 m -5.563,0.435 h -1.389 v 1.26 h 1.201 c 0.076,0 0.147,0.065 0.147,0.147 v 0.247 c 0,0.077 -0.071,0.136 -0.147,0.136 h -1.201 v 1.053 h 1.342 c 0.083,0 0.141,0.071 0.141,0.147 v 0.265 c 0,0.077 -0.064,0.142 -0.141,0.142 h -1.825 c -0.076,0 -0.141,-0.065 -0.141,-0.142 v -3.685 c 0,-0.076 0.065,-0.141 0.141,-0.141 h 1.872 c 0.077,0 0.147,0.065 0.147,0.141 v 0.289 c 0,0.076 -0.07,0.141 -0.147,0.141 m 20.654,3.397 h -2.296 c -0.077,0 -0.147,-0.065 -0.147,-0.142 v -0.288 c 0,-0.077 0.07,-0.136 0.147,-0.136 h 0.836 v -3.261 c 0,-0.076 0.065,-0.141 0.141,-0.141 h 0.341 c 0.077,0 0.142,0.065 0.142,0.141 v 3.261 h 0.836 c 0.076,0 0.135,0.059 0.135,0.136 v 0.288 c 0,0.077 -0.059,0.142 -0.135,0.142 m -4.08,0.312 c 0.195,0 0.347,0.158 0.347,0.352 0,0.195 -0.158,0.342 -0.353,0.342 -0.182,0 -0.335,-0.147 -0.335,-0.342 0,-0.194 0.153,-0.352 0.341,-0.352 m -1.542,0.352 c 0,-0.194 0.153,-0.352 0.341,-0.352 0.195,0 0.347,0.158 0.347,0.352 0,0.195 -0.158,0.342 -0.353,0.342 -0.182,0 -0.335,-0.147 -0.335,-0.342 M 0.31,-6.598 v 2.531 c 0,0.094 -0.053,0.142 -0.141,0.142 h -0.342 c -0.082,0 -0.135,-0.053 -0.135,-0.142 v -2.596 c 0,-0.8 0.412,-1.265 1.283,-1.265 0.848,0 1.295,0.447 1.295,1.265 v 2.596 c 0,0.089 -0.059,0.142 -0.141,0.142 H 1.793 c -0.088,0 -0.147,-0.048 -0.147,-0.142 v -2.566 c 0,-0.601 -0.247,-0.777 -0.683,-0.777 -0.482,0 -0.653,0.294 -0.653,0.812 m 5.347,-1.183 c 0.03,-0.071 0.083,-0.112 0.159,-0.112 h 0.553 c 0.077,0 0.147,0.065 0.147,0.136 v 3.696 c 0,0.071 -0.07,0.136 -0.147,0.136 h -0.3 c -0.076,0 -0.141,-0.065 -0.141,-0.136 l 0.006,-2.29 c 0,-0.276 0.029,-0.641 0.059,-0.947 C 5.91,-7.01 5.84,-6.721 5.734,-6.462 L 4.739,-4.031 C 4.709,-3.966 4.627,-3.925 4.55,-3.925 H 3.997 c -0.076,0 -0.141,-0.059 -0.141,-0.136 v -3.696 c 0,-0.071 0.065,-0.136 0.141,-0.136 h 0.312 c 0.077,0 0.141,0.065 0.141,0.136 l -0.006,2.331 c 0,0.217 -0.053,0.688 -0.082,0.988 0.077,-0.3 0.153,-0.629 0.259,-0.877 z m 24.546,3.856 h -2.295 c -0.077,0 -0.148,-0.065 -0.148,-0.142 v -0.288 c 0,-0.077 0.071,-0.136 0.148,-0.136 h 0.835 v -3.261 c 0,-0.076 0.065,-0.141 0.142,-0.141 h 0.341 c 0.077,0 0.141,0.065 0.141,0.141 v 3.261 h 0.836 c 0.077,0 0.136,0.059 0.136,0.136 v 0.288 c 0,0.077 -0.059,0.142 -0.136,0.142 m 2.888,-2.426 -0.407,1.548 c -0.041,0.159 -0.064,0.395 -0.088,0.554 -0.017,-0.165 -0.047,-0.389 -0.088,-0.554 l -0.383,-1.548 z m 1.077,-1.377 C 34.197,-7.816 34.15,-7.893 34.062,-7.893 H 33.65 c -0.082,0 -0.159,0.053 -0.183,0.13 l -0.235,0.871 H 31.99 l -0.224,-0.871 c -0.018,-0.077 -0.088,-0.13 -0.171,-0.13 h -0.382 c -0.089,0 -0.13,0.077 -0.106,0.165 l 1.054,3.667 c 0.023,0.083 0.105,0.136 0.182,0.136 h 0.518 c 0.077,0 0.147,-0.048 0.177,-0.136 z m -5.464,-1.397 h -0.336 c -0.088,0 -0.147,-0.047 -0.147,-0.142 v -2.566 c 0,-0.6 -0.247,-0.777 -0.683,-0.777 -0.483,0 -0.654,0.294 -0.654,0.812 v 2.531 c 0,0.095 -0.052,0.142 -0.141,0.142 h -0.341 c -0.083,0 -0.136,-0.054 -0.136,-0.142 v -2.595 c 0,-0.801 0.412,-1.266 1.284,-1.266 0.847,0 1.295,0.447 1.295,1.266 v 2.595 c 0,0.088 -0.059,0.142 -0.141,0.142 m 8.478,-1.678 h -0.995 c -0.077,0 -0.142,-0.065 -0.142,-0.141 v -0.277 c 0,-0.076 0.065,-0.141 0.142,-0.141 h 0.518 v -1.16 c -0.118,-0.035 -0.242,-0.053 -0.377,-0.053 -0.624,0 -0.995,0.377 -0.995,1.436 0,1.037 0.318,1.496 0.948,1.496 0.306,0 0.512,-0.071 0.718,-0.171 0.071,-0.035 0.141,0 0.171,0.065 l 0.118,0.253 c 0.035,0.07 0.011,0.141 -0.065,0.182 -0.259,0.135 -0.595,0.224 -0.942,0.224 -1.024,0 -1.613,-0.783 -1.613,-2.007 0,-1.272 0.483,-2.031 1.601,-2.031 0.318,0 0.648,0.059 0.871,0.141 0.142,0.053 0.183,0.112 0.183,0.247 v 1.796 c 0,0.076 -0.065,0.141 -0.141,0.141 m -4.763,0.589 c 0,0.282 -0.188,0.541 -0.583,0.541 h -0.535 v -1.159 h 0.471 c 0.406,0 0.647,0.247 0.647,0.618 m 0.895,-2.696 c 0.041,-0.106 0.023,-0.183 -0.1,-0.183 h -0.43 c -0.083,0 -0.147,0.024 -0.177,0.124 -0.135,0.406 -0.235,0.824 -0.4,1.136 -0.135,0.259 -0.312,0.494 -0.665,0.494 h -0.241 v -1.618 c 0,-0.071 -0.065,-0.136 -0.142,-0.136 h -0.341 c -0.077,0 -0.141,0.065 -0.141,0.136 v 3.69 c 0,0.077 0.064,0.142 0.141,0.142 h 1.036 c 0.995,0 1.201,-0.613 1.201,-1.007 0,-0.465 -0.259,-0.877 -0.865,-0.971 0.282,-0.059 0.506,-0.306 0.629,-0.565 0.095,-0.2 0.324,-0.772 0.495,-1.242 m -9.297,1.012 c 0,0.359 -0.259,0.642 -0.701,0.642 h -0.571 v -1.289 h 0.671 c 0.371,0 0.601,0.247 0.601,0.647 m -1.272,1.136 h 0.518 c 0.407,0 0.613,0.224 0.613,0.559 0,0.348 -0.189,0.554 -0.577,0.554 h -0.554 z m 1.943,-1.212 c 0,-0.713 -0.436,-1.119 -1.189,-1.119 h -1.236 c -0.077,0 -0.142,0.065 -0.142,0.136 v 3.69 c 0,0.077 0.065,0.142 0.142,0.142 h 1.171 c 0.683,0 1.083,-0.424 1.083,-1.007 0,-0.417 -0.194,-0.706 -0.647,-0.853 0.535,-0.089 0.818,-0.495 0.818,-0.989 M 3.212,-9.125 H 2.546 c -0.074,0 -0.154,-0.054 -0.172,-0.118 l -0.769,-2.698 c -0.037,-0.146 -0.06,-0.395 -0.078,-0.597 -0.017,0.202 -0.041,0.451 -0.078,0.597 L 0.681,-9.243 C 0.662,-9.179 0.582,-9.125 0.508,-9.125 H -0.16 c -0.08,0 -0.148,-0.059 -0.148,-0.135 v -3.697 c 0,-0.071 0.068,-0.136 0.148,-0.136 h 0.302 c 0.074,0 0.141,0.059 0.147,0.136 l -0.009,2.471 c -0.002,0.141 -0.03,0.658 -0.039,0.817 0.048,-0.204 0.117,-0.553 0.18,-0.811 l 0.728,-2.477 c 0.018,-0.083 0.092,-0.136 0.172,-0.136 h 0.215 0.196 c 0.08,0 0.154,0.053 0.172,0.136 l 0.729,2.477 c 0.063,0.258 0.132,0.607 0.18,0.811 -0.009,-0.159 -0.037,-0.676 -0.039,-0.817 l -0.009,-2.471 c 0.006,-0.077 0.074,-0.136 0.148,-0.136 h 0.299 c 0.08,0 0.148,0.065 0.148,0.136 v 3.697 c 0,0.076 -0.068,0.135 -0.148,0.135 m 12.455,-1.996 c 0,0.63 -0.088,0.972 -0.264,1.201 -0.142,0.182 -0.371,0.271 -0.624,0.271 H 14.39 v -2.902 h 0.377 c 0.577,0 0.9,0.247 0.9,1.43 m 0.66,0.036 c 0,-1.26 -0.341,-2.008 -1.46,-2.008 h -0.96 c -0.076,0 -0.141,0.065 -0.141,0.142 v 3.684 c 0,0.077 0.065,0.142 0.141,0.142 h 0.937 c 0.835,0 1.483,-0.448 1.483,-1.96 m -4.583,0.282 H 10.75 c -0.077,0 -0.142,-0.065 -0.142,-0.141 v -0.277 c 0,-0.076 0.065,-0.141 0.142,-0.141 h 0.518 v -1.16 c -0.118,-0.035 -0.242,-0.053 -0.377,-0.053 -0.624,0 -0.995,0.377 -0.995,1.436 0,1.037 0.318,1.496 0.948,1.496 0.306,0 0.512,-0.071 0.718,-0.171 0.071,-0.035 0.141,0 0.171,0.065 l 0.117,0.253 c 0.036,0.07 0.012,0.141 -0.064,0.182 -0.259,0.135 -0.595,0.224 -0.942,0.224 -1.024,0 -1.613,-0.783 -1.613,-2.007 0,-1.272 0.483,-2.031 1.601,-2.031 0.318,0 0.647,0.059 0.871,0.141 0.141,0.053 0.183,0.112 0.183,0.247 v 1.796 c 0,0.076 -0.065,0.141 -0.142,0.141 m -4.797,-0.748 -0.406,1.549 C 6.5,-9.843 6.476,-9.608 6.453,-9.449 6.435,-9.614 6.406,-9.838 6.364,-10.002 l -0.382,-1.549 z m 1.077,-1.377 c 0.03,-0.088 -0.017,-0.165 -0.106,-0.165 H 7.506 c -0.082,0 -0.159,0.053 -0.182,0.13 l -0.236,0.871 H 5.846 l -0.223,-0.871 c -0.018,-0.077 -0.089,-0.13 -0.171,-0.13 H 5.069 c -0.088,0 -0.129,0.077 -0.106,0.165 l 1.054,3.668 c 0.024,0.081 0.106,0.135 0.182,0.135 h 0.518 c 0.077,0 0.148,-0.047 0.177,-0.135 z m 12.166,0.265 v -0.288 c 0,-0.077 -0.07,-0.142 -0.147,-0.142 h -1.872 c -0.076,0 -0.141,0.065 -0.141,0.142 v 3.684 c 0,0.077 0.065,0.142 0.141,0.142 h 1.825 c 0.076,0 0.141,-0.065 0.141,-0.142 v -0.265 c 0,-0.076 -0.058,-0.147 -0.141,-0.147 h -1.342 v -1.053 h 1.201 c 0.076,0 0.147,-0.059 0.147,-0.136 v -0.247 c 0,-0.082 -0.071,-0.147 -0.147,-0.147 h -1.201 v -1.26 h 1.389 c 0.077,0 0.147,-0.064 0.147,-0.141" /></g><g
           transform="translate(393.6254,17.7661)"
           id="g48"><path
             id="path50"
             style="fill:#1d1d1b;fill-opacity:1;fill-rule:nonzero;stroke:none"
             d="m 0,0 c 0.014,1.423 -0.85,0.945 -1.144,1.669 -0.278,0.688 0.234,1.367 -0.346,1.86 -0.206,0.175 -0.393,0.181 -0.624,0.327 -0.617,0.39 -1.073,0.924 -1.31,1.302 -0.23,0.366 0.018,0.733 -0.218,1.115 -0.125,0.203 -0.317,0.243 -0.412,0.46 -0.096,0.22 0.113,0.429 -0.046,0.609 -0.266,0.303 -0.517,0.544 -0.733,1.222 -0.654,2.063 -1.493,1.795 -1.676,1.913 -0.503,0.326 -1.373,0.721 -2.01,0.891 -0.748,0.198 -1.197,0.263 -1.772,0.275 -0.895,0.018 -1.069,-0.291 -1.203,-0.28 -1.756,0.151 -2.567,-0.389 -3.583,-0.898 -1.266,-0.635 -1.956,-1.778 -2.277,-2.812 -0.16,-0.514 -0.305,-0.797 -0.49,-1.327 -0.117,-0.329 -0.313,-0.547 -0.589,-0.694 -0.251,-0.134 -0.425,-0.277 -0.769,-0.289 -0.294,-0.01 -0.676,-0.167 -0.755,-0.326 l 0.02,-0.571 c 0,0 0.165,0.049 0.436,0.3 0.211,0.194 0.397,-0.011 0.871,-0.069 1.113,-0.036 1.721,0.652 1.786,0.798 0.095,0.203 -10e-4,0.761 0.123,0.853 l 0.179,0.006 C -16.583,6 -16.519,5.603 -16.785,5.24 c -0.334,-0.455 -0.787,-0.574 -0.911,-0.618 -0.72,-0.258 -1.105,-0.156 -1.466,-0.11 -0.418,0.054 -0.03,-0.6 -1.221,-0.47 -0.4,0.043 -0.809,-0.319 -0.82,-0.653 -0.012,-0.358 0.026,-1.708 0.065,-1.8 l 0.585,-0.512 c 0,0 -0.132,0.665 0.308,0.474 0.615,-0.266 1.674,-0.011 1.774,0.068 -0.223,-0.208 -0.254,-0.439 -0.425,-0.657 -0.38,-0.462 -1.156,-0.724 -0.968,-1.562 0.391,-1.745 -0.422,-1.656 -0.422,-1.656 -0.51,-0.018 -0.885,0.706 -0.885,0.706 l 0.037,-0.772 c -0.007,-0.399 0.757,-1.295 1.285,-1.076 l 0.346,-0.678 c 1.249,-0.204 0.01,-1.153 0.022,-1.502 l 0.519,-1.088 c 0.027,0.089 0.079,1.15 0.591,1.105 0.482,-0.042 0.527,-0.48 0.527,-0.48 -0.883,-0.663 0.185,-1.759 0.814,-2.092 0,0 0.079,0.143 0.221,0.172 -0.311,0.115 -0.507,0.346 -0.447,0.563 0.062,0.223 0.109,0.185 0.291,0.243 0.231,0.073 0.293,0.01 0.507,0.117 0.227,0.115 0.308,-0.206 0.516,-0.144 0.154,0.047 0.39,0.244 0.609,0.391 -0.387,-0.501 -0.725,-1.214 -1.457,-2.19 -0.142,-0.189 -0.155,-1.707 -0.081,-3.169 l 0.012,-0.239 c 0.067,-1.171 0.188,-2.257 0.341,-2.532 0.019,-0.034 -0.098,-0.05 0.66,1.09 l 0.185,0.285 c 0.816,1.292 1.964,2.854 3.06,3.865 l 0.246,1.535 c 0.061,-0.012 0.126,-0.019 0.194,-0.017 l -0.17,-1.517 c 0.324,-0.089 0.914,-0.874 2.453,-2.752 l 0.27,-0.33 c 0.876,-1.066 1.938,-2.222 1.989,-2.144 0.295,0.455 3.684,6.087 3.684,6.087 0,0 -0.995,1.407 -1.29,2.336 0.362,0.356 0.337,0.011 1.283,-0.604 0.732,-0.477 1.023,-0.04 1.023,-0.04 0,0 -0.68,0.402 -0.682,0.808 -0.005,0.896 0.363,0.866 0.554,0.841 0.454,-0.058 0.242,-0.465 0.242,-0.465 l 0.478,0.005 c 0,0 0.156,0.092 0.205,0.193 0.347,0.71 -1.211,1.097 -1.466,1.319 -0.258,0.227 -0.103,0.67 -0.103,0.67 0.805,-0.994 1.314,-0.752 2.142,-0.524 l 0.846,0.852 c -0.899,-0.106 -1.867,-0.911 -2.562,1.156 l 0.171,0.155 c 0.41,-0.736 0.853,-1.018 1.39,-1.05 l 1.264,1.318 C -1.923,-2.873 -1.818,-0.974 -1.818,-0.974 -0.313,-0.897 -0.003,-0.295 0,0 m -18.346,-2.396 c 0.021,-0.623 -0.567,-0.968 -1.103,-0.986 0,0 -0.015,0.061 -0.067,0.097 0.536,0.019 1.082,0.3 1.06,0.923 0,0 0.108,0.016 0.11,-0.034 m 6.362,-7.075 0.146,1.088 c 4.487,0.525 5.318,2.989 5.318,2.989 0,0 0.261,0.415 0.305,0.281 0.625,-1.923 1.768,-3.625 1.768,-3.625 l -3.319,-5.556 c -0.178,0.208 -3.832,4.65 -4.218,4.823 m -2.945,2.578 c 0.32,-0.977 1.491,-1.103 1.851,-1.239 0.121,-0.045 0.315,-0.038 0.315,-0.038 l -0.192,-1.236 c -2.445,-2.774 -3.446,-4.738 -3.446,-4.738 -0.351,1.629 -0.208,4.892 -0.208,4.892 0,0 0.9,1.284 1.68,2.359 m 0.912,0.254 c 0.005,-0.166 0.034,-0.272 0.015,-0.439 -0.042,0.105 -0.164,0.339 -0.164,0.339 0.025,0.012 0.116,0.301 0.115,0.336 0.042,0.251 0.123,0.468 0.323,0.534 -0.022,-0.107 -0.099,-0.178 -0.189,-0.374 -0.094,-0.206 -0.106,-0.23 -0.1,-0.396 m 9.638,5.126 c -0.381,-0.038 -0.597,0.279 -0.597,0.279 -0.481,-0.841 -0.934,-0.307 -0.934,-0.307 0.003,0.599 -0.762,-3.045 -0.879,-3.604 -0.218,-0.414 -1.04,-1.903 -3.572,-2.658 l 0.094,0.05 c 0.216,0.124 0.283,0.308 0.434,0.525 0.132,0.189 0.244,0.282 0.312,0.498 0.014,0.045 -0.037,0.124 -0.096,0.223 0.113,0.004 0.482,0.326 0.592,0.436 0.33,0.333 0.614,0.521 0.906,0.864 0.377,0.452 0.722,0.702 0.998,1.151 0.191,0.316 0.259,0.556 0.308,0.95 0.082,0.573 0.335,1.295 0.364,1.902 -0.191,-0.34 -0.271,-0.58 -0.337,-0.844 -0.112,-0.42 -0.129,-0.67 -0.242,-1.054 -0.113,-0.384 -0.153,-0.682 -0.397,-0.964 -0.206,-0.245 -0.428,-0.419 -0.662,-0.594 -0.665,-0.503 -1.098,-1.263 -2.027,-1.456 -0.456,0.339 -1.032,0.68 -1.191,0.66 0,0 -0.205,-0.057 -0.33,-0.062 l -0.053,-0.326 c 0,0 0.185,-0.074 0.18,-0.031 -0.019,0.199 0.158,0.213 0.15,0.118 -0.01,-0.101 0.152,-0.719 -0.105,-1.039 -0.046,-0.058 0.022,0.849 -0.255,0.739 l -0.101,-0.415 -0.127,-0.004 c 0,0 0.022,0.088 0.013,0.349 -0.009,0.253 -0.083,0.466 -0.473,0.665 -0.083,0.042 -0.088,-0.51 -0.168,-0.6 l -0.289,-0.135 c -0.053,0.182 -0.129,0.42 -0.04,0.423 0.269,0.009 0.147,0.234 0.216,0.395 0.044,0.102 0.121,0.13 0.103,0.267 -0.07,0.546 0.011,1.227 -0.079,1.223 -0.074,-0.002 -0.136,-0.041 -0.191,0.006 -0.058,0.049 -0.007,0.187 -0.007,0.187 -0.28,-0.035 -0.163,-1.191 -0.163,-1.191 -0.117,-0.163 -0.361,-0.327 -0.477,-0.444 0,0 -0.086,-0.066 -0.105,-0.058 -0.328,0.002 -0.663,-0.556 -0.663,-0.556 -0.126,-0.028 -0.563,0.755 -0.583,0.74 -0.059,0.259 0.054,0.084 -0.149,0.646 -0.032,0.213 -0.266,1.073 -0.299,1.123 -0.465,0.471 -0.413,2.556 -0.614,3.079 -0.12,0.314 -0.542,0.417 -0.584,0.788 -0.074,0.652 0.034,0.938 0.149,1.526 0.033,0.168 0.005,0.278 0.086,0.43 0.094,0.177 0.198,0.323 0.407,0.332 0.191,0.009 0.231,-0.178 0.393,-0.273 0.139,-0.082 0.202,-0.181 0.364,-0.199 0.59,-0.067 0.532,0.118 0.532,0.118 l 0.289,0.16 c -0.092,0.059 -0.239,-0.045 -0.395,-0.051 -0.175,-0.008 -0.282,-0.021 -0.448,0.034 -0.169,0.055 -0.487,0.16 -0.354,0.274 0.092,0.08 0.145,-0.144 0.32,-0.014 0,0 -0.283,0.241 -0.194,0.43 -0.056,0.057 0.027,0.135 0.096,0.178 0.059,0.038 0.127,0.042 0.177,0.044 0,0 -0.071,-0.262 -0.011,-0.412 0.068,-0.17 0.193,-0.254 0.381,-0.299 0.116,-0.027 0.192,-0.014 0.305,0.024 0.166,0.054 0.29,0.122 0.322,0.298 0.02,0.107 0.007,0.175 0.042,0.276 0,0 0.107,-0.159 0.213,-0.255 0.066,-0.06 -0.002,-0.147 0.046,-0.223 0.033,-0.052 0.069,-0.077 0.131,-0.095 0.086,-0.026 0.158,-0.02 0.302,0.11 0.026,0.049 0.042,0.073 0.008,0.138 -0.068,0.135 -0.161,-0.131 -0.628,0.439 -0.106,0.129 -0.225,0.144 -0.389,0.186 -0.198,0.051 -0.309,0.065 -0.525,0.032 -0.057,-0.02 -0.07,0.004 -0.132,0.108 0,0 0.053,0.065 0.099,0.091 0.261,0.141 0.627,-0.016 0.763,0.101 -0.206,0.043 -0.108,0.09 -0.195,0.106 -0.296,0.052 -0.218,0.029 -0.678,0.013 0,0 -0.266,-0.046 -0.427,-0.189 -0.141,-0.125 -0.308,-0.336 -0.308,-0.336 -0.061,-0.033 -0.113,0.099 -0.132,0.121 0,0 0.151,0.348 0.327,0.51 0.182,0.167 0.351,0.212 0.564,0.307 0.193,0.085 0.331,-0.02 0.539,-0.056 0.226,-0.039 0.322,-0.089 0.567,-0.155 0.166,-0.045 0.142,-0.251 0.305,-0.314 0.042,-0.016 0.082,0.009 0.115,-0.021 0.038,-0.033 0.025,-0.087 -0.008,-0.125 -0.071,-0.082 -0.177,0.017 -0.283,0.053 -0.061,0.021 -0.078,0.073 -0.143,0.082 -0.045,0.006 -0.07,-0.011 -0.114,-0.016 -0.153,-0.02 0.195,-0.135 0.302,-0.239 0.125,-0.125 0.108,-0.295 0.28,-0.353 0.08,-0.026 0.146,0.026 0.218,-0.017 0.088,-0.052 0.088,-0.136 0.097,-0.233 0.004,-0.041 0.005,-0.078 0.003,-0.112 -0.008,-0.282 -0.213,-0.374 -0.269,-0.433 -0.195,-0.209 -0.087,-1.109 -0.061,-1.5 0,0 -0.501,-0.873 -0.157,-1.312 0.107,-0.136 0.106,-0.139 0.393,-0.39 0,0 -0.204,-0.593 -0.357,-0.631 -0.14,0.031 -0.909,-0.241 -1.068,-0.77 l -0.02,-0.143 c 0.002,-0.054 -0.396,-0.081 -0.69,0.19 -0.082,0.075 -0.139,-0.544 -0.014,-0.884 0.057,-0.164 0.143,-0.47 0.57,-0.36 0.145,0.009 0.447,0.067 0.55,0.186 0.026,-0.027 0.723,-0.415 1.014,-0.405 0.379,0.013 0.531,0.249 0.529,0.303 0,0 -0.153,0.007 -0.331,-0.012 -0.618,-0.065 -0.572,0.28 -0.572,0.28 0.237,0.145 0.262,0.18 0.552,0.137 0.232,-0.036 0.267,-0.051 0.408,-0.121 0.028,-0.004 0.103,-0.004 0.14,0.009 0.187,0.066 0.385,0.192 0.823,0.117 0.1,-0.017 0.444,-0.238 0.812,-0.096 l -0.106,0.044 0.19,-0.005 -0.084,-0.039 c 0.204,-0.078 0.111,0.022 0.353,0.012 0.32,-0.014 0.192,-0.73 0.98,-0.615 0.355,0.052 0.285,1.332 0.285,1.332 l -0.166,-0.005 c 0.003,-0.437 -0.138,-0.729 -0.252,-0.739 -0.255,-0.022 -0.255,0.272 -0.773,0.491 0,0 -0.178,0.226 0.066,0.197 0.192,-0.023 0.211,-0.373 0.692,-0.261 l 0.004,0.391 c -0.728,-0.026 -0.722,0.658 -1.499,0.645 -0.262,-0.004 0.085,-0.221 -0.234,-0.245 -0.216,-0.016 -0.1,0.12 -0.477,0.059 -0.102,-0.017 -0.267,0.239 -0.244,0.398 0.022,0.15 0.165,0.046 0.198,0.194 0,0 -0.182,0.534 0.176,0.51 0.173,-0.012 0.49,-0.507 0.662,0.073 0.09,0.004 -0.078,0.022 -0.078,0.022 -0.044,0.04 -0.032,-0.19 -0.174,-0.118 -0.234,0.116 -0.148,0.219 -0.518,0.181 -0.536,-0.055 -0.381,-0.583 -0.532,-0.48 -0.798,0.546 -1.141,0.846 -0.65,1.786 l 0.071,-0.184 c -0.033,0.56 -0.104,1.493 0.014,1.772 0.05,0.118 0.07,0.342 0.099,0.516 0.092,0.553 0.087,1.198 -0.11,1.267 -0.614,0.216 -0.466,0.784 -1.101,0.857 l -1.163,-0.034 c 0,0 -0.163,0.665 0.595,0.891 0,0 -0.088,0.896 0.165,1.128 0.198,0.182 0.562,-0.005 0.414,0.589 -0.027,0.107 -0.099,0.101 -0.159,0.169 -0.14,0.157 -0.207,0.067 -0.347,0.412 -0.089,0.22 0.415,0.563 0.415,0.563 1.772,-0.287 2.371,1.252 2.371,1.252 0.658,-1.187 2.128,-1.054 2.128,-1.054 0.355,-0.012 0.735,-0.022 1.078,-0.438 0.236,-0.285 0.285,-0.497 0.657,-0.69 0.387,-0.2 0.707,0.049 0.707,0.049 -0.406,0.033 -0.69,0.252 -0.863,0.59 -0.627,1.225 -1.23,1.155 -1.4,1.105 0.151,0.071 0.141,0.223 0.68,0.15 0.784,-0.105 1.168,-1.422 1.672,-1.486 0.77,-0.098 0.75,-0.233 0.57,-0.938 C -6.781,6.562 -6.821,5.755 -6.563,4.724 -6.407,4.098 -5.952,3.844 -5.897,3.2 -5.81,2.18 -6.25,1.86 -5.915,0.779 c 0.231,-0.74 -0.149,-1.577 0.682,-1.972 l 0.098,0.128 c -0.807,0.446 -0.295,1.137 -0.295,1.137 -0.008,-1.223 0.99,-1.288 0.99,-1.288 -0.331,0.226 -0.065,0.397 -0.065,0.397 0.429,0.14 0.667,-0.64 0.126,-0.694 m -8.393,-0.374 c 0.135,0.141 0.054,0.256 0.143,0.243 0.115,-0.017 0.192,-0.235 0.192,-0.235 0,0 0.007,-0.089 0.146,-0.218 0.149,-0.137 0.582,-0.157 0.781,-0.249 l 0.414,-0.474 c -0.198,0.025 -0.364,0.124 -0.493,0.198 -0.576,0.364 -0.996,-0.094 -0.996,-0.094 -0.38,0.355 -0.541,0.267 -1.225,-0.09 -0.189,-0.099 -0.305,0.06 -0.117,0.091 0.053,0.027 0.264,0.434 0.408,0.469 0.226,0.056 0.552,0.156 0.747,0.359 m -2.116,5.052 c 0,0 0.128,-0.052 0.17,-0.119 0.027,-0.043 0.03,-0.124 0.03,-0.124 -0.067,-0.102 -0.323,0.114 -0.2,0.243 m 0.588,-0.03 -0.071,-0.164 -0.005,0.162 z m 7.027,0.423 c 0.014,-0.05 -0.258,0.443 -0.362,0.578 -0.157,0.197 -0.233,0.196 -0.377,0.38 -0.078,0.111 -0.208,0.469 -0.345,0.478 -0.422,0.03 -0.707,-0.223 -0.923,-0.239 -0.118,-0.009 0.087,0.138 0.087,0.138 0.036,0.113 -0.743,0.149 -0.743,0.149 0,0 -0.574,0.002 -0.608,-0.261 l 0.001,-0.1 0.478,-0.079 C -9.86,4.543 -9.823,4.619 -9.58,4.586 l 0.447,0.008 0.396,0.119 0.211,-0.019 C -8.462,4.695 -8.401,4.606 -8.377,4.558 -8.232,4.274 -8.08,4.24 -7.864,4.032 -7.454,3.637 -7.45,3.48 -7.273,3.558 m -3.19,0.9 c -0.115,0.011 -0.199,-0.29 -0.492,-0.32 -0.394,-0.041 -0.541,0.264 -0.672,0.523 0.012,0.026 -0.043,0.261 -0.056,0.286 l -0.102,-0.052 c 0.007,-0.411 0.168,-0.894 0.579,-1.024 l 0.006,-0.349 0.127,0.015 c 0.051,10e-4 0.061,0.163 0.111,0.264 0.012,0.025 0.176,0.153 0.303,0.18 0.178,0.028 0.382,0.069 0.624,0.074 l -0.002,0.15 -0.294,-0.006 -0.103,0.048 0.062,0.151 c -0.013,0.024 -0.053,0.057 -0.091,0.06 M -11.22,0.511 -11.334,0.507 c 0.007,-0.075 0.031,-0.115 0.057,-0.185 0.04,-0.108 -0.045,-0.164 0.149,-0.257 l 0.013,-0.349 0.109,-0.002 -0.016,0.46 -0.096,-0.009 z m 0.237,2.217 c 0.001,-0.05 -0.011,-0.113 0.003,-0.187 l 0.281,-0.008 -0.04,0.099 c 0,0 0.012,0.063 0.011,0.101 l 0.114,0.051 c 0.153,-0.022 0.216,-0.355 0.534,-0.299 0.013,0.002 -0.008,0.11 -0.008,0.11 -0.294,0.057 -0.31,0.218 -0.31,0.218 0.212,0.341 0.569,0.348 0.57,0.285 L -9.864,2.948 C -9.858,2.611 -9.777,2.314 -9.381,2.321 -9.1,2.326 -8.873,2.48 -8.8,2.718 -8.736,2.682 -8.678,2.602 -8.644,2.522 -8.591,2.398 -8.642,2.385 -8.64,2.285 -8.64,2.247 -8.793,2.257 -8.739,2.083 l 0.192,-0.008 0.149,0.239 C -8.403,2.626 -8.73,3.106 -9.064,3.225 -9.167,3.26 -9.334,3.332 -9.525,3.341 L -9.934,3.333 c -0.114,-0.014 -0.278,-0.129 -0.278,-0.129 -0.198,-0.053 -0.182,0.171 -0.182,0.171 0.088,0.118 0.1,0.151 0.455,0.258 l 0.472,0.033 c -0.021,0.04 0.028,0.138 0.028,0.138 -0.88,-0.004 -1.155,-0.378 -1.21,-0.434 -0.025,-0.025 -0.175,-0.215 -0.175,-0.253 10e-4,-0.012 0.167,-0.034 0.167,-0.034 l 0.049,0.101 c 0.064,-0.011 0.153,0.003 0.154,-0.06 0.003,-0.149 -0.113,-0.089 -0.11,-0.264 l -0.102,-0.002 c -0.153,-0.003 -0.32,0.044 -0.317,-0.13 m 1.82,0.131 -0.242,-0.004 -0.002,0.137 0.242,0.005 z m -0.459,0.118 c 0,0 -0.056,-0.45 0.352,-0.405 L -9.333,2.521 C -9.754,2.489 -9.684,2.926 -9.622,2.977 m -0.401,-0.716 -0.265,-0.005 0.002,-0.112 0.179,0.004 0.003,-0.165 0.102,0.002 z m 1.574,0.801 c 0.193,-0.87 0.768,-0.897 0.768,-0.897 l 0.111,0.117 c 0,0 -0.575,0.027 -0.768,0.896 C -8.385,3.152 -8.449,3.062 -8.449,3.062 m 1.033,0.056 c -10e-4,0.1 -0.014,0.124 -0.029,0.237 L -7.533,3.253 C -7.591,3.271 -7.676,3.489 -7.75,3.574 L -7.909,3.546 C -7.842,3.348 -7.61,3.289 -7.658,3.126 -7.666,3.099 -7.491,3.067 -7.416,3.118 m -4.226,-6.614 c -0.001,0.037 -0.09,0.021 -0.128,0.02 -0.051,-0.002 -0.07,-0.12 -0.112,-0.091 -0.105,0.071 -0.223,0.179 -0.228,0.329 l -0.319,-0.012 c -0.003,0.087 -0.202,0.034 -0.173,-0.084 0.039,10e-4 0.189,-0.015 0.188,0.01 0.133,-0.145 0.274,-0.153 0.328,-0.251 0.082,-0.146 0.036,-0.31 0.154,-0.381 0.028,0.301 0.298,0.248 0.29,0.46" /></g><g
           transform="translate(321.138,16.8678)"
           id="g52"><path
             id="path54"
             style="fill:#4e769b;fill-opacity:1;fill-rule:nonzero;stroke:none"
             d="M 0,0 H -4.105 L -5.642,-3.56 H 1.544 Z" /></g><g
           transform="translate(355.5662,19.5885)"
           id="g56"><path
             id="path58"
             style="fill:#4e769b;fill-opacity:1;fill-rule:nonzero;stroke:none"
             d="M 0,0 C -0.603,0.378 -1.308,0.56 -2.019,0.56 H -2.02 -7.496 c -0.152,0 -0.284,0.106 -0.316,0.255 L -7.837,0.93 -9.859,6.57 c -0.331,1.236 -1.433,2.088 -2.726,2.088 -1.324,0 -2.445,-0.891 -2.748,-2.173 l -3.214,-11.856 -3.215,11.856 c -0.302,1.282 -1.424,2.173 -2.747,2.173 -1.312,0 -2.425,-0.875 -2.74,-2.139 l -2.54,-8.305 1.654,-3.815 c 0.784,0.532 1.375,1.339 1.606,2.3 l 1.978,6.468 3.256,-12.009 c 0.303,-1.282 1.424,-2.173 2.748,-2.173 1.323,0 2.445,0.891 2.747,2.173 l 3.309,12.204 1.23,-3.43 C -10.829,-1.775 -9.267,-3 -7.496,-3 h 5.476 c 0.111,0 0.186,-0.051 0.229,-0.095 0.043,-0.043 0.094,-0.117 0.094,-0.228 v -3.861 c 0,-0.178 -0.145,-0.323 -0.323,-0.323 h -10.307 c -0.161,0 -0.301,-0.108 -0.343,-0.263 l -0.773,-2.848 c -0.061,-0.226 0.11,-0.449 0.344,-0.449 H -2.02 c 2.145,0 3.883,1.738 3.883,3.883 v 3.861 C 1.863,-1.983 1.189,-0.746 0,0" /></g><g
           transform="translate(346.217,26.3183)"
           id="g60"><path
             id="path62"
             style="fill:#1b365d;fill-opacity:1;fill-rule:nonzero;stroke:none"
             d="m 0,0 0.549,-1.532 h 10.046 c 0.156,0 0.295,0.102 0.34,0.252 l 0.872,2.848 c 0.07,0.229 -0.102,0.46 -0.341,0.46 H 0.357 C -0.17,2.028 -0.672,1.922 -1.131,1.731 -0.597,1.303 -0.195,0.708 0,0" /></g><g
           transform="translate(333.7514,10.6238)"
           id="g64"><path
             id="path66"
             style="fill:#1b365d;fill-opacity:1;fill-rule:nonzero;stroke:none"
             d="m 0,0 -0.416,1.534 h -5.692 l -6.198,14.292 c -0.385,1.157 -1.303,1.897 -2.369,1.897 -10e-4,0 -0.002,0 -0.003,0 -1.067,-0.002 -1.985,-0.744 -2.369,-1.905 l -7.485,-17.347 c -0.101,-0.235 0.071,-0.497 0.327,-0.497 h 3.102 c 0.142,0 0.27,0.084 0.327,0.215 l 6.103,14.145 6.135,-14.146 c 0.057,-0.13 0.185,-0.214 0.327,-0.214 h 3.647 5.972 C 0.717,-1.568 0.202,-0.857 0,0" /></g><g
           transform="translate(277.4521,22.6191)"
           id="g68"><path
             id="path70"
             style="fill:#ffffff;fill-opacity:1;fill-rule:nonzero;stroke:none"
             d="M 0,0 C 0.021,-0.014 0.042,-0.028 0.062,-0.043 0.043,-0.028 0.021,-0.014 0,0 m 0.487,-0.703 0.002,-0.015 c -0.001,0.005 -0.001,0.01 -0.002,0.015 M 5.756,-1.491 V -1.492 Z M 5.305,-2.477 C 5.302,-2.48 5.3,-2.484 5.298,-2.487 5.3,-2.484 5.302,-2.48 5.305,-2.477 M 3.991,-9.331 c 0,-0.001 10e-4,-0.002 10e-4,-0.003 0,10e-4 -10e-4,0.002 -10e-4,0.003 m -0.11,-0.794 -0.002,-0.002 c 10e-4,0.001 10e-4,0.002 0.002,0.002 m 9.542,-6.125 c 0.068,-0.04 0.133,-0.084 0.191,-0.134 0.004,0.138 0.006,0.278 0.006,0.419 -0.065,-0.096 -0.132,-0.191 -0.197,-0.285 M -3.12,-18.219 h 1.469 l -0.02,0.143 c -0.016,0.127 -0.024,0.251 -0.032,0.376 l -0.028,0.324 c -0.021,0.165 -0.039,0.33 -0.04,0.495 l -0.002,5.875 c -0.011,0.139 -0.016,0.219 -0.016,0.298 -0.002,0.173 0.019,0.362 0.062,0.548 l 0.035,0.145 -0.059,0.033 -0.021,0.669 v 1.644 c -10e-4,1.807 -0.002,3.616 0.005,5.424 0,0.105 0.006,0.207 0.016,0.305 -0.361,0 -0.723,-0.003 -1.084,-0.005 l -0.458,-0.003 c 0.01,-0.057 0.02,-0.115 0.026,-0.173 0.01,-0.071 0.017,-0.154 0.023,-0.237 l 0.116,-1.16 -0.011,-0.075 z m 3.508,8.324 0.175,-0.437 c 0.035,-0.093 0.067,-0.188 0.111,-0.277 0.178,-0.361 0.363,-0.722 0.56,-1.074 0.49,-0.873 1.011,-1.6 1.595,-2.223 0.511,-0.546 1.063,-1.038 1.642,-1.464 0.285,-0.209 0.57,-0.418 0.865,-0.614 0.122,-0.081 0.255,-0.154 0.387,-0.228 l 0.473,-0.273 c 0.166,-0.097 0.332,-0.194 0.501,-0.288 0.186,-0.102 0.378,-0.204 0.574,-0.294 0.324,-0.149 0.65,-0.289 0.977,-0.429 0.231,-0.097 0.469,-0.194 0.708,-0.283 0.109,-0.04 0.22,-0.077 0.329,-0.113 0.135,-0.045 0.27,-0.09 0.403,-0.14 0.304,-0.113 0.617,-0.198 0.929,-0.285 l 0.118,-0.033 c 0.288,-0.08 0.582,-0.132 0.877,-0.185 0.056,-0.01 0.112,-0.019 0.167,-0.027 -10e-4,0.154 10e-4,0.307 0.004,0.459 -0.05,0.016 -0.1,0.031 -0.15,0.048 l -0.301,0.104 c -0.122,0.033 -0.244,0.067 -0.363,0.106 -0.703,0.229 -1.429,0.517 -2.285,0.905 -0.213,0.1 -0.39,0.244 -0.521,0.421 l -0.103,-0.19 -1.891,1.212 c -0.19,0.131 -0.328,0.227 -0.461,0.328 l -0.144,0.108 c -0.21,0.157 -0.419,0.315 -0.612,0.492 -0.357,0.328 -0.708,0.667 -1.041,1.023 -0.256,0.273 -0.503,0.576 -0.754,0.924 -0.481,0.666 -0.867,1.371 -1.143,2.091 -0.058,0.149 -0.113,0.304 -0.166,0.458 -0.155,0.445 -0.075,0.923 0.22,1.311 l 3.701,4.925 c 0.052,0.079 0.105,0.158 0.162,0.235 0.4,0.544 0.802,1.09 1.207,1.634 L 5.563,-1.962 C 5.49,-2.131 5.429,-2.265 5.36,-2.384 5.332,-2.466 5.287,-2.579 5.211,-2.699 L 5.176,-2.808 C 4.994,-3.207 4.771,-3.591 4.448,-4.062 4.246,-4.359 4.04,-4.653 3.834,-4.947 L 0.893,-9.189 C 0.77,-9.366 0.644,-9.541 0.518,-9.714 Z m 11.855,-11.063 -0.491,0.114 c -0.184,0.022 -0.368,0.045 -0.55,0.079 -0.357,0.064 -0.722,0.132 -1.077,0.231 l -0.114,0.033 c -0.374,0.103 -0.749,0.209 -1.115,0.344 -0.108,0.04 -0.218,0.077 -0.328,0.114 -0.134,0.044 -0.269,0.089 -0.402,0.139 -0.27,0.101 -0.538,0.209 -0.803,0.321 -0.35,0.149 -0.696,0.298 -1.04,0.456 -0.244,0.113 -0.483,0.239 -0.72,0.369 -0.189,0.104 -0.37,0.21 -0.551,0.315 l -0.438,0.252 c -0.181,0.102 -0.362,0.204 -0.534,0.318 -0.326,0.218 -0.641,0.447 -0.953,0.677 -0.69,0.508 -1.348,1.093 -1.953,1.739 -0.235,0.251 -0.46,0.514 -0.678,0.79 l 0.001,-2.207 c 0,-0.073 0.013,-0.149 0.022,-0.226 l 0.042,-0.459 c 0.004,-0.079 0.008,-0.159 0.018,-0.237 l 0.125,-0.9 c 0.007,-0.054 0.013,-0.114 0.018,-0.176 l 0.022,-0.111 0.396,-1.434 -1.47,-0.07 h -4.744 l -0.228,0.837 c -0.018,0.06 -0.061,0.193 -0.07,0.368 -0.009,0.19 -0.015,0.376 -0.015,0.563 l -0.14,16.381 -0.283,-0.081 -0.058,2.724 1.372,0.008 0.508,0.144 0.053,-0.141 1.084,0.006 c 0.483,0.004 0.965,0.008 1.447,0.005 0.201,0 0.4,-0.013 0.6,-0.025 L 0.239,0.246 0.42,-0.42 C 0.536,-0.605 0.609,-0.823 0.639,-1.074 L 0.664,-1.284 0.556,-1.828 C 0.531,-1.97 0.502,-2.111 0.501,-2.254 0.496,-3.43 0.495,-4.605 0.494,-5.781 l 1.484,2.137 c 0.201,0.286 0.401,0.572 0.598,0.861 0.246,0.36 0.41,0.639 0.531,0.907 0.042,0.108 0.083,0.202 0.128,0.287 0.031,0.089 0.079,0.215 0.169,0.35 0.022,0.037 0.039,0.088 0.06,0.136 l 0.1,0.245 c 0.04,0.102 0.082,0.204 0.127,0.304 0.17,0.377 0.429,0.632 0.769,0.755 0.268,0.094 0.512,0.106 0.695,0.106 L 9.229,0.292 C 9.469,0.289 9.676,0.237 9.859,0.139 l 0.52,-0.279 0.127,-0.631 c 0.049,-0.397 -0.105,-0.78 -0.42,-1.05 L 9.344,-2.815 C 9.271,-2.907 9.196,-3 9.126,-3.094 8.667,-3.711 8.211,-4.33 7.756,-4.948 L 6.104,-7.175 4.15,-9.769 c 0.206,-0.522 0.491,-1.033 0.846,-1.524 0.177,-0.247 0.366,-0.485 0.571,-0.705 0.292,-0.312 0.602,-0.61 0.917,-0.899 0.02,-0.018 0.04,-0.036 0.061,-0.054 l -0.004,0.983 0.021,1.146 c 0,0.102 -0.005,0.222 -0.013,0.343 -0.008,0.121 -0.017,0.236 -0.031,0.352 l -0.067,0.462 c -0.013,0.109 -0.021,0.217 -0.028,0.32 l -0.103,1.228 1.478,0.1 c 0.238,0.003 0.469,0.004 0.699,-0.007 0.528,-0.021 0.923,-0.219 1.187,-0.589 l 2.011,-2.817 c 0.102,-0.15 0.204,-0.3 0.311,-0.446 0.027,-0.039 0.055,-0.077 0.082,-0.114 0.072,0.111 0.144,0.221 0.216,0.331 0.621,0.962 1.24,1.925 1.855,2.89 0.275,0.427 0.719,0.68 1.223,0.695 0.222,0.005 0.441,0.004 0.658,0.002 0.622,-0.011 1.118,-0.399 1.274,-0.987 0.04,-0.154 0.06,-0.305 0.06,-0.452 l -0.007,-0.286 c -0.004,-0.107 -0.007,-0.213 -0.007,-0.32 l 0.012,-5.699 c 0,-0.096 0.011,-0.187 0.021,-0.279 l 0.036,-0.337 c 0.017,-0.151 0.034,-0.302 0.047,-0.452 0.063,-0.736 -0.393,-1.284 -1.135,-1.361 -0.104,-0.009 -0.201,-0.017 -0.298,-0.017 l -1.169,0.009 c -0.323,0.002 -0.604,0.101 -0.82,0.273 v -0.011 c -0.004,-0.208 -0.009,-0.417 -0.007,-0.625 10e-4,-0.044 0.012,-0.092 0.019,-0.142 l 0.038,-0.27 -0.042,-0.848 -0.359,-0.011 -0.035,-0.238 -1.082,0.204 -0.04,-0.001 z" /></g><g
           transform="translate(290.0063,2.704)"
           id="g72"><path
             id="path74"
             style="fill:#000000;fill-opacity:1;fill-rule:nonzero;stroke:none"
             d="M 0,0 C 0.003,0.015 0.005,0.03 0.008,0.044 -0.09,0.073 -0.187,0.102 -0.285,0.131 -0.334,0.143 -0.382,0.16 -0.431,0.167 -0.669,0.2 -0.909,0.221 -1.145,0.264 -1.473,0.324 -1.802,0.384 -2.123,0.473 -2.505,0.579 -2.889,0.682 -3.262,0.821 -3.504,0.911 -3.751,0.984 -3.993,1.074 -4.248,1.169 -4.5,1.271 -4.75,1.377 -5.087,1.52 -5.424,1.664 -5.756,1.818 c -0.221,0.102 -0.437,0.215 -0.65,0.333 -0.262,0.144 -0.518,0.298 -0.776,0.447 -0.222,0.129 -0.452,0.248 -0.666,0.39 -0.309,0.206 -0.609,0.424 -0.907,0.644 -0.649,0.478 -1.249,1.015 -1.798,1.602 -0.691,0.737 -1.263,1.564 -1.756,2.444 -0.207,0.37 -0.402,0.747 -0.589,1.127 -0.091,0.184 -0.152,0.383 -0.227,0.575 -0.016,0.04 -0.034,0.079 -0.051,0.119 -0.024,-0.101 -0.034,-0.196 -0.034,-0.292 0.001,-0.099 0.016,-0.198 0.016,-0.297 0.001,-1.957 0,-3.914 0.004,-5.871 0,-0.185 0.034,-0.37 0.05,-0.555 0.015,-0.168 0.02,-0.337 0.04,-0.504 0.038,-0.304 0.085,-0.608 0.126,-0.912 0.011,-0.083 0.012,-0.169 0.026,-0.251 0.015,-0.085 0.042,-0.169 0.064,-0.255 h -3.877 c -0.013,0.047 -0.031,0.087 -0.032,0.127 -0.008,0.169 -0.014,0.338 -0.014,0.507 -0.005,2.018 -0.01,4.035 -0.012,6.053 -0.004,3.035 -0.005,6.069 -0.007,9.103 0.003,0.013 0.007,0.026 0.01,0.038 -0.006,0.041 -0.012,0.081 -0.016,0.122 -0.013,0.128 -0.025,0.256 -0.038,0.384 -0.016,0.151 -0.034,0.302 -0.05,0.453 -0.01,0.102 -0.013,0.204 -0.025,0.305 -0.02,0.156 -0.062,0.311 -0.065,0.467 -0.005,0.232 -0.06,0.447 -0.148,0.657 -0.03,0.073 -0.049,0.151 -0.072,0.222 -0.014,-0.004 -0.036,-0.011 -0.058,-0.017 v 0.11 c 0.08,0 0.16,0.001 0.24,0.002 0.359,0.002 0.718,0.003 1.077,0.005 0.67,0.003 1.339,0.011 2.009,0.008 0.256,-0.001 0.512,-0.024 0.768,-0.037 0.011,-0.039 0.009,-0.099 0.035,-0.115 0.103,-0.066 0.108,-0.168 0.12,-0.27 -0.011,-0.046 -0.027,-0.091 -0.034,-0.138 -0.041,-0.294 -0.113,-0.588 -0.114,-0.883 -0.01,-2.322 -0.006,-4.645 -0.006,-6.967 v -0.096 c 0.007,-0.004 0.014,-0.007 0.021,-0.011 0.022,0.021 0.047,0.039 0.064,0.063 0.172,0.239 0.347,0.476 0.515,0.719 0.615,0.885 1.228,1.772 1.842,2.659 0.26,0.376 0.52,0.753 0.781,1.129 0.309,0.444 0.623,0.885 0.928,1.331 0.235,0.344 0.455,0.697 0.627,1.077 0.039,0.085 0.065,0.178 0.115,0.255 0.045,0.071 0.048,0.154 0.095,0.226 0.08,0.122 0.133,0.262 0.192,0.397 0.063,0.147 0.115,0.298 0.182,0.443 0.027,0.061 0.068,0.14 0.122,0.159 0.096,0.034 0.206,0.039 0.31,0.039 1.358,-0.003 2.716,-0.008 4.075,-0.014 0.031,-0.001 0.067,-0.005 0.094,-0.02 0.04,-0.021 0.092,-0.041 0.023,-0.1 -0.06,-0.05 -0.107,-0.116 -0.155,-0.18 C -3.547,18.53 -3.729,18.283 -3.915,18.039 -4.054,17.856 -4.202,17.681 -4.338,17.497 -4.798,16.879 -5.255,16.259 -5.712,15.639 -5.797,15.523 -5.871,15.4 -5.956,15.284 -6.051,15.154 -6.154,15.029 -6.251,14.9 -6.62,14.407 -6.988,13.912 -7.358,13.419 -7.861,12.749 -8.365,12.079 -8.869,11.41 -9.106,11.095 -9.347,10.782 -9.583,10.467 -9.639,10.393 -9.666,10.305 -9.634,10.212 -9.585,10.071 -9.536,9.93 -9.482,9.79 -9.229,9.134 -8.888,8.525 -8.477,7.957 -8.273,7.673 -8.053,7.398 -7.814,7.143 -7.502,6.809 -7.172,6.491 -6.835,6.182 -6.624,5.989 -6.388,5.822 -6.16,5.648 -6.024,5.545 -5.883,5.449 -5.743,5.353 -5.521,5.2 -5.298,5.05 -5.075,4.899 c 0.049,-0.033 0.1,-0.065 0.155,-0.1 0.011,0.025 0.023,0.041 0.025,0.057 0.012,0.151 0.034,0.301 0.033,0.452 -0.002,0.684 -0.011,1.369 -0.018,2.054 v 0.027 c 0,0.186 0.001,0.372 0.001,0.558 0,0.015 0,0.03 0,0.045 0.002,0.231 0.004,0.462 0.006,0.694 0,0.063 -0.003,0.127 0,0.19 0.004,0.071 0.018,0.143 0.017,0.214 -0.002,0.141 -0.009,0.283 -0.018,0.424 -0.009,0.137 -0.02,0.274 -0.037,0.41 -0.018,0.154 -0.047,0.308 -0.066,0.462 -0.015,0.13 -0.023,0.26 -0.033,0.377 0.313,0 0.607,0.009 0.9,-0.005 0.109,-0.005 0.237,-10e-4 0.317,-0.114 0.102,-0.143 0.21,-0.281 0.312,-0.424 0.472,-0.659 0.944,-1.319 1.413,-1.98 0.204,-0.287 0.395,-0.583 0.602,-0.868 0.273,-0.378 0.556,-0.749 0.834,-1.123 0.089,-0.156 0.277,-0.194 0.365,-0.07 0.096,0.136 0.186,0.276 0.278,0.415 0.231,0.349 0.465,0.696 0.692,1.048 0.622,0.963 1.242,1.928 1.858,2.895 0.075,0.117 0.175,0.167 0.301,0.171 0.204,0.006 0.409,0.003 0.613,10e-4 C 3.577,10.708 3.639,10.661 3.664,10.565 3.678,10.513 3.686,10.457 3.686,10.404 3.683,10.2 3.672,9.996 3.672,9.793 3.673,9.068 3.679,8.344 3.68,7.62 3.682,6.445 3.68,5.27 3.684,4.095 3.684,3.944 3.701,3.793 3.716,3.642 3.74,3.407 3.772,3.173 3.792,2.937 3.802,2.812 3.794,2.811 3.671,2.798 3.61,2.792 3.549,2.786 3.489,2.787 3.102,2.789 2.715,2.792 2.329,2.795 2.197,2.797 2.18,2.809 2.181,2.943 2.185,3.281 2.2,3.618 2.199,3.956 2.197,5.014 2.19,6.073 2.182,7.132 2.181,7.253 2.166,7.375 2.148,7.494 2.136,7.575 2.105,7.653 2.083,7.732 2.047,7.695 2.035,7.659 2.021,7.623 1.956,7.457 1.895,7.289 1.822,7.126 1.788,7.049 1.729,6.984 1.685,6.911 1.603,6.773 1.525,6.633 1.443,6.496 1.435,6.483 1.413,6.479 1.399,6.469 1.39,6.461 1.381,6.451 1.377,6.441 1.361,6.406 1.354,6.367 1.333,6.336 1.097,5.992 0.86,5.65 0.624,5.307 0.302,4.842 -0.014,4.373 -0.344,3.914 -0.418,3.811 -0.476,3.676 -0.619,3.634 -0.699,3.752 -0.775,3.874 -0.859,3.988 -1.472,4.826 -2.092,5.658 -2.7,6.5 -2.949,6.844 -3.173,7.205 -3.41,7.558 -3.445,7.611 -3.485,7.66 -3.521,7.709 c 0,-0.245 10e-4,-0.483 0,-0.722 C -3.523,6.698 -3.53,6.409 -3.529,6.121 -3.528,5.479 -3.524,4.836 -3.52,4.194 -3.519,4.109 -3.485,4.046 -3.403,4.009 -2.694,3.687 -1.975,3.39 -1.235,3.148 -1.031,3.081 -0.821,3.034 -0.614,2.977 -0.599,2.964 -0.587,2.944 -0.57,2.938 -0.44,2.896 -0.311,2.856 -0.18,2.818 -0.029,2.775 0.123,2.736 0.275,2.693 0.329,2.677 0.361,2.644 0.361,2.581 0.362,2.493 0.374,2.406 0.373,2.318 0.369,1.975 0.356,1.633 0.359,1.29 0.361,1.142 0.393,0.994 0.412,0.846 0.399,0.594 0.386,0.343 0.375,0.092 0.373,0.051 0.374,0.01 0.374,-0.031" /></g><g
           transform="translate(295.9248,19.1743)"
           id="g76"><path
             id="path78"
             style="fill:#ffffff;fill-opacity:1;fill-rule:nonzero;stroke:none"
             d="M 0,0 C 0.014,-0.123 0.023,-0.246 0.026,-0.369 0.038,-0.994 0.035,-1.618 0.033,-2.243 L 0.02,-5.657 0.419,-5.65 1.945,-5.648 c 0.165,0.002 0.355,0.041 0.599,0.122 0.218,0.071 0.439,0.18 0.681,0.335 0.14,0.09 0.25,0.18 0.328,0.27 0.132,0.151 0.244,0.316 0.357,0.479 l 0.085,0.12 c 0.08,0.116 0.144,0.315 0.2,0.509 0.082,0.277 0.136,0.498 0.134,0.685 l -0.002,0.223 c 0,0.182 0,0.365 -0.015,0.547 -0.02,0.217 -0.054,0.432 -0.105,0.642 -0.039,0.162 -0.141,0.362 -0.248,0.572 -0.138,0.274 -0.335,0.5 -0.604,0.698 -0.246,0.18 -0.545,0.314 -0.891,0.398 -0.127,0.03 -0.301,0.035 -0.502,0.04 C 1.828,-0.004 1.693,0 1.561,0.009 1.515,0.013 1.468,0.014 1.421,0.014 Z m -6.427,-16.749 -0.205,0.983 -0.015,0.108 c -0.024,0.154 -0.044,0.308 -0.046,0.463 -0.002,0.18 10e-4,0.359 0.004,0.537 -0.05,0.015 -0.444,0.143 -0.444,0.143 l -0.234,0.255 -0.642,0.599 0.362,0.533 -0.446,1.016 0.954,0.281 c 0.103,0.143 0.204,0.287 0.305,0.432 -0.288,0.117 -0.537,0.331 -0.7,0.613 l -0.421,0.732 0.325,0.343 c -0.007,0.108 -0.013,0.218 -0.016,0.326 -0.009,0.43 -0.018,0.859 -0.018,1.287 L -7.668,8.719 c 0,0.271 0.004,0.543 0.009,0.814 L -7.765,9.523 C -7.976,9.503 -8.188,9.484 -8.396,9.45 -8.68,9.403 -8.962,9.338 -9.239,9.262 -9.708,9.132 -10.175,8.996 -10.636,8.842 -10.88,8.761 -11.117,8.656 -11.354,8.552 l -0.131,-0.057 c -0.217,-0.095 -0.436,-0.188 -0.642,-0.303 -0.375,-0.21 -0.741,-0.437 -1.105,-0.666 -0.203,-0.127 -0.399,-0.267 -0.592,-0.411 -0.108,-0.08 -0.208,-0.168 -0.31,-0.256 l -0.229,-0.194 c -0.101,-0.084 -0.202,-0.167 -0.296,-0.259 l -0.16,-0.159 c -0.382,-0.374 -0.742,-0.728 -1.044,-1.109 -0.069,-0.088 -0.143,-0.173 -0.217,-0.257 -0.088,-0.1 -0.179,-0.204 -0.207,-0.262 l -0.06,-0.121 -0.104,-0.129 c -0.233,-0.282 -0.435,-0.604 -0.623,-0.992 0.004,-0.009 -0.032,-0.096 -0.077,-0.176 l -0.247,-0.436 -0.062,-0.15 -0.402,-0.772 c -0.029,-0.054 -0.06,-0.106 -0.091,-0.158 l -1.693,-2.792 -0.392,2.862 -0.085,0.055 -0.104,0.584 -0.239,0.881 0.554,0.222 c 0.143,0.322 0.29,0.647 0.449,0.965 0.132,0.267 0.282,0.525 0.433,0.783 l 0.07,0.121 c 0.128,0.225 0.249,0.439 0.436,0.64 0.073,0.078 0.146,0.2 0.216,0.318 l 0.077,0.131 0.118,0.122 c 0.255,0.357 0.547,0.663 0.805,0.935 l 0.108,0.113 c 0.218,0.23 0.369,0.389 0.528,0.541 0.219,0.209 0.443,0.415 0.675,0.61 0.114,0.098 0.239,0.188 0.365,0.278 l 0.149,0.107 0.235,0.18 c 0.139,0.108 0.278,0.215 0.42,0.318 0.108,0.078 0.225,0.151 0.344,0.223 l 0.133,0.084 c 0.687,0.447 1.399,0.832 2.115,1.143 0.775,0.339 1.607,0.609 2.472,0.803 l 0.254,0.062 c 0.197,0.049 0.395,0.097 0.595,0.131 0.221,0.038 0.443,0.063 0.667,0.087 l 0.787,0.1 c 0.106,0.013 0.222,0.022 0.337,0.028 0.327,0.016 0.562,0.028 0.796,0.034 h 0.002 c 0.832,0 1.382,-0.558 1.386,-1.356 l -0.002,-0.631 c 0,0 0.013,-1.445 0.014,-1.799 C -4.671,8.547 -4.416,8.52 -4.16,8.491 L -3.925,8.466 C -3.699,8.442 -3.474,8.417 -3.251,8.377 -3.077,8.346 -2.903,8.306 -2.729,8.266 -2.603,8.237 -2.476,8.207 -2.347,8.183 -1.396,8.003 -0.529,7.67 0.207,7.373 0.606,7.211 0.993,7.017 1.379,6.821 L 1.591,6.713 C 1.866,6.575 2.135,6.421 2.398,6.259 2.651,6.104 2.901,5.937 3.149,5.771 L 3.253,5.703 C 3.757,5.369 4.243,4.98 4.739,4.518 5.13,4.153 5.573,3.739 5.948,3.233 6.04,3.11 6.135,2.989 6.229,2.868 6.422,2.624 6.613,2.379 6.784,2.12 7.398,1.189 7.886,0.151 8.23,-0.965 8.347,-1.338 8.464,-1.719 8.519,-2.14 l 0.015,-0.118 c 0.039,-0.3 0.076,-0.6 0.088,-0.901 C 8.643,-3.724 8.648,-4.287 8.641,-4.85 8.637,-5.069 8.607,-5.288 8.574,-5.505 L 8.531,-5.837 C 8.516,-5.999 8.497,-6.161 8.465,-6.319 8.364,-6.791 8.221,-7.223 8.082,-7.641 L 8.049,-7.74 C 7.835,-8.389 7.536,-9.037 7.16,-9.666 6.996,-9.941 6.815,-10.206 6.634,-10.47 l -0.428,-0.635 c -0.31,-0.48 -0.688,-0.874 -1.019,-1.207 -0.526,-0.53 -1.002,-0.936 -1.5,-1.279 -0.068,-0.046 -0.128,-0.094 -0.189,-0.14 -0.128,-0.1 -0.256,-0.198 -0.392,-0.284 -0.38,-0.238 -0.761,-0.47 -1.153,-0.682 -0.412,-0.226 -0.834,-0.44 -1.265,-0.637 -0.352,-0.162 -0.717,-0.303 -1.085,-0.428 -0.354,-0.12 -0.714,-0.228 -1.074,-0.337 l -0.332,-0.1 c -0.296,-0.091 -0.497,-0.152 -0.702,-0.197 -0.215,-0.049 -0.433,-0.087 -0.653,-0.125 l -0.331,-0.06 c -0.165,-0.03 -0.33,-0.06 -0.496,-0.077 -0.184,-0.02 -0.369,-0.032 -0.554,-0.044 l -0.7,-0.055 -0.131,-0.003 z" /></g><g
           transform="translate(296.3437,12.3709)"
           id="g80"><path
             id="path82"
             style="fill:#43734c;fill-opacity:1;fill-rule:nonzero;stroke:none"
             d="m 0,0 c 0,0.006 0,0.013 0,0.019 0.515,0 1.029,-0.006 1.544,0.002 C 1.865,0.026 2.176,0.1 2.48,0.2 2.815,0.31 3.123,0.469 3.419,0.659 3.631,0.795 3.827,0.952 3.99,1.138 4.177,1.354 4.338,1.594 4.503,1.829 4.681,2.083 4.778,2.376 4.865,2.67 4.963,3.002 5.048,3.338 5.044,3.688 5.04,3.974 5.047,4.261 5.022,4.545 4.998,4.816 4.955,5.088 4.891,5.352 4.822,5.642 4.686,5.908 4.551,6.175 4.325,6.62 4.003,6.981 3.608,7.271 3.22,7.555 2.782,7.744 2.311,7.858 1.953,7.944 1.586,7.917 1.224,7.943 1.048,7.956 0.87,7.948 0.694,7.946 -0.062,7.941 -0.817,7.933 -1.573,7.928 -1.658,7.928 -1.696,7.902 -1.685,7.811 -1.657,7.594 -1.634,7.376 -1.608,7.158 -1.58,6.909 -1.531,6.661 -1.526,6.411 -1.514,5.76 -1.518,5.109 -1.52,4.457 -1.525,3.06 -1.533,1.664 -1.537,0.267 c 0,-0.065 0.021,-0.131 0.038,-0.194 0.015,-0.058 0.058,-0.075 0.119,-0.074 C -0.92,0.001 -0.46,0 0,0 m -19.376,9.019 c -0.012,0.102 -0.017,0.204 -0.12,0.27 -0.026,0.016 -0.024,0.076 -0.035,0.115 0.094,0.05 0.109,0.146 0.147,0.233 0.166,0.377 0.333,0.755 0.517,1.124 0.143,0.286 0.308,0.562 0.469,0.839 0.088,0.151 0.17,0.312 0.287,0.439 0.145,0.157 0.254,0.332 0.361,0.513 0.027,0.045 0.075,0.076 0.105,0.12 0.248,0.357 0.553,0.664 0.851,0.978 0.16,0.169 0.319,0.339 0.487,0.499 0.202,0.194 0.408,0.383 0.621,0.564 0.148,0.125 0.313,0.23 0.467,0.347 0.213,0.16 0.42,0.327 0.636,0.483 0.138,0.1 0.288,0.183 0.432,0.276 0.62,0.404 1.269,0.759 1.948,1.054 0.731,0.318 1.489,0.561 2.268,0.736 0.265,0.059 0.525,0.137 0.792,0.182 0.297,0.051 0.6,0.074 0.9,0.111 0.167,0.021 0.333,0.047 0.501,0.068 0.083,0.01 0.168,0.016 0.252,0.02 0.258,0.013 0.515,0.027 0.773,0.033 0.177,0.005 0.223,-0.046 0.224,-0.228 0,-0.21 -0.003,-0.42 -0.002,-0.63 0.005,-0.693 0.014,-1.386 0.016,-2.078 0,-0.199 -0.024,-0.398 -0.032,-0.597 -0.004,-0.113 0.071,-0.208 0.196,-0.209 0.27,-0.001 0.539,-0.014 0.808,-0.034 0.304,-0.023 0.607,-0.058 0.91,-0.091 0.242,-0.026 0.485,-0.048 0.724,-0.091 0.301,-0.055 0.596,-0.136 0.897,-0.193 0.811,-0.153 1.579,-0.44 2.339,-0.747 0.445,-0.18 0.871,-0.405 1.299,-0.621 0.247,-0.124 0.487,-0.262 0.723,-0.407 0.278,-0.171 0.549,-0.354 0.821,-0.535 0.478,-0.317 0.922,-0.679 1.34,-1.07 0.38,-0.354 0.76,-0.71 1.072,-1.13 C 4.882,9.006 5.175,8.669 5.418,8.3 5.99,7.433 6.421,6.497 6.729,5.504 6.83,5.178 6.932,4.855 6.975,4.517 7.015,4.213 7.059,3.907 7.07,3.601 7.09,3.058 7.096,2.514 7.088,1.97 7.084,1.728 7.032,1.487 7.002,1.245 6.981,1.069 6.972,0.89 6.935,0.716 6.842,0.275 6.696,-0.152 6.554,-0.581 6.357,-1.178 6.089,-1.743 5.768,-2.281 5.548,-2.649 5.294,-2.997 5.056,-3.354 4.982,-3.466 4.906,-3.576 4.834,-3.689 4.588,-4.067 4.28,-4.392 3.964,-4.71 3.548,-5.127 3.111,-5.519 2.624,-5.854 2.439,-5.981 2.27,-6.133 2.08,-6.253 1.724,-6.477 1.363,-6.696 0.993,-6.898 0.602,-7.112 0.203,-7.314 -0.203,-7.5 -0.521,-7.646 -0.849,-7.772 -1.181,-7.885 -1.634,-8.038 -2.094,-8.171 -2.553,-8.311 -2.758,-8.373 -2.962,-8.44 -3.171,-8.487 -3.435,-8.546 -3.703,-8.588 -3.97,-8.636 -4.154,-8.669 -4.338,-8.707 -4.524,-8.727 -4.778,-8.754 -5.034,-8.766 -5.289,-8.785 -5.425,-8.796 -5.56,-8.811 -5.696,-8.82 c -0.076,-0.005 -0.153,-10e-4 -0.23,-10e-4 -0.018,0.148 -0.051,0.296 -0.052,0.444 -0.003,0.343 0.01,0.685 0.013,1.028 10e-4,0.088 -0.011,0.176 -0.011,0.263 -0.001,0.063 -0.032,0.097 -0.087,0.112 -0.151,0.043 -0.304,0.082 -0.455,0.125 -0.13,0.038 -0.26,0.078 -0.389,0.12 -0.017,0.006 -0.03,0.026 -0.044,0.039 0.013,0.023 0.035,0.045 0.038,0.069 0.022,0.198 0.041,0.397 -0.043,0.588 0.143,0.042 0.2,0.177 0.275,0.28 0.33,0.459 0.646,0.928 0.967,1.393 0.237,0.343 0.474,0.686 0.709,1.029 0.021,0.031 0.029,0.07 0.044,0.105 0.005,0.01 0.014,0.021 0.023,0.028 0.014,0.01 0.036,0.014 0.044,0.027 0.082,0.138 0.16,0.277 0.242,0.415 0.044,0.073 0.103,0.138 0.137,0.215 0.072,0.163 0.134,0.331 0.199,0.497 0.014,0.036 0.026,0.072 0.062,0.109 0.022,-0.079 0.052,-0.157 0.065,-0.238 0.018,-0.119 0.032,-0.241 0.033,-0.362 0.009,-1.059 0.015,-2.117 0.018,-3.176 0.001,-0.338 -0.014,-0.675 -0.018,-1.013 -0.002,-0.134 0.015,-0.146 0.147,-0.147 0.387,-0.004 0.774,-0.007 1.16,-0.009 0.061,0 0.122,0.005 0.182,0.011 0.124,0.013 0.132,0.014 0.122,0.139 -0.02,0.236 -0.053,0.47 -0.076,0.706 -0.015,0.15 -0.032,0.302 -0.033,0.453 -0.003,1.174 -0.002,2.349 -0.004,3.524 -10e-4,0.724 -0.006,1.449 -0.007,2.173 -10e-4,0.203 0.011,0.407 0.013,0.611 C -2.651,0.79 -2.659,0.846 -2.673,0.898 -2.698,0.994 -2.76,1.041 -2.863,1.042 -3.067,1.045 -3.271,1.047 -3.475,1.041 -3.602,1.037 -3.701,0.987 -3.776,0.87 c -0.616,-0.967 -1.237,-1.931 -1.858,-2.895 -0.227,-0.352 -0.461,-0.699 -0.692,-1.048 -0.092,-0.139 -0.183,-0.279 -0.279,-0.415 -0.087,-0.124 -0.275,-0.086 -0.364,0.071 0.017,0.019 0.046,0.036 0.05,0.057 0.012,0.066 0.023,0.133 0.02,0.199 -0.007,0.203 -0.027,0.405 -0.032,0.607 -0.01,0.42 -0.018,0.84 -0.018,1.259 -0.002,3.577 -0.001,7.153 -0.001,10.73 -10e-4,2.029 -0.004,4.058 -0.003,6.087 0,0.517 0.015,1.033 0.018,1.549 0,0.141 -0.019,0.283 -0.035,0.424 -0.001,0.018 -0.031,0.045 -0.049,0.047 -0.08,0.008 -0.162,0.017 -0.242,0.011 -0.254,-0.02 -0.508,-0.046 -0.761,-0.072 -0.326,-0.034 -0.654,-0.055 -0.977,-0.109 -0.324,-0.053 -0.645,-0.127 -0.961,-0.214 -0.487,-0.134 -0.972,-0.277 -1.452,-0.436 -0.301,-0.1 -0.593,-0.231 -0.885,-0.358 -0.271,-0.118 -0.544,-0.235 -0.802,-0.379 -0.392,-0.219 -0.775,-0.456 -1.156,-0.696 -0.228,-0.143 -0.449,-0.3 -0.666,-0.462 -0.163,-0.121 -0.316,-0.257 -0.471,-0.39 -0.162,-0.138 -0.33,-0.271 -0.481,-0.42 -0.448,-0.442 -0.906,-0.876 -1.297,-1.372 -0.188,-0.237 -0.416,-0.444 -0.552,-0.72 -0.007,-0.014 -0.018,-0.025 -0.027,-0.037 -0.306,-0.371 -0.554,-0.78 -0.764,-1.212 -0.018,-0.038 -0.026,-0.081 -0.046,-0.118 -0.084,-0.15 -0.172,-0.298 -0.255,-0.449 -0.031,-0.056 -0.047,-0.12 -0.075,-0.177 -0.065,-0.129 -0.134,-0.255 -0.201,-0.383 -0.065,-0.125 -0.128,-0.25 -0.194,-0.374 -0.029,-0.053 -0.061,-0.104 -0.092,-0.156" /></g><g
           transform="translate(289.2754,1.6352)"
           id="g84"><path
             id="path86"
             style="fill:#ffffff;fill-opacity:1;fill-rule:nonzero;stroke:none"
             d="M 0,0 -2.989,3.332 0.773,2.286 1.99,1.928 1.858,0.933 1.65,-0.169 Z" /></g><g
           transform="translate(289.8233,2.7225)"
           id="g88"><path
             id="path90"
             style="fill:#43734c;fill-opacity:1;fill-rule:nonzero;stroke:none"
             d="M 0,0 C -0.034,0.037 -0.068,0.075 -0.102,0.112 -0.004,0.084 0.093,0.055 0.191,0.026 0.188,0.011 0.186,-0.004 0.183,-0.019 0.122,-0.012 0.061,-0.006 0,0" /></g><g
           transform="translate(284.7021,9.5991)"
           id="g92"><path
             id="path94"
             style="fill:#ffffff;fill-opacity:1;fill-rule:nonzero;stroke:none"
             d="M 0,0 -2.887,1.075 -0.024,2.14 1.497,2.693 1.559,1.097 v -1.574 z" /></g><g
           transform="translate(285.1269,10.6505)"
           id="g96"><path
             id="path98"
             style="fill:#43734c;fill-opacity:1;fill-rule:nonzero;stroke:none"
             d="M 0,0 C -0.015,0.005 -0.03,0.011 -0.061,0.023 -0.03,0.034 -0.015,0.04 0,0.045 0,0.03 0,0.015 0,0" /></g><g
           transform="translate(273.18,19.0562)"
           id="g100"><path
             id="path102"
             style="fill:#ffffff;fill-opacity:1;fill-rule:nonzero;stroke:none"
             d="M 0,0 C 0.003,0.013 0.007,0.026 0.01,0.038 0.007,0.025 0.003,0.013 0,0" /></g><g
           transform="translate(273.18,19.0562)"
           id="g104"><path
             id="path106"
             style="fill:#43734c;fill-opacity:1;fill-rule:nonzero;stroke:none"
             d="M 0,0 C 0.003,0.013 0.007,0.026 0.01,0.038 0.007,0.025 0.003,0.013 0,0" /></g><g
           transform="translate(284.5957,9.0639)"
           id="g108"><path
             id="path110"
             style="fill:#ffffff;fill-opacity:1;fill-rule:nonzero;stroke:none"
             d="m 0,0 -1.512,0.756 1.323,1.15 1.854,1.325 v -4.154 z" /></g><g
           transform="translate(285.1267,10.0656)"
           id="g112"><path
             id="path114"
             style="fill:#43734c;fill-opacity:1;fill-rule:nonzero;stroke:none"
             d="M 0,0 C -0.007,0.004 -0.014,0.007 -0.02,0.011 -0.014,0.017 -0.007,0.022 0,0.028 Z" /></g><g
           transform="translate(289.7784,2.7261)"
           id="g116"><path
             id="path118"
             style="fill:#ffffff;fill-opacity:1;fill-rule:nonzero;stroke:none"
             d="M 0,0 C 0.007,-0.001 0.015,-0.001 0.022,-0.002 0.015,-0.001 0.007,-0.001 0,0" /></g><g
           transform="translate(289.7784,2.7261)"
           id="g120"><path
             id="path122"
             style="fill:#43734c;fill-opacity:1;fill-rule:nonzero;stroke:none"
             d="M 0,0 C 0.007,-0.001 0.015,-0.001 0.022,-0.002 0.015,-0.001 0.007,-0.001 0,0" /></g><g
           transform="translate(297.4258,14.5805)"
           id="g124"><path
             id="path126"
             style="fill:#ffffff;fill-opacity:1;fill-rule:nonzero;stroke:none"
             d="M 0,0 C 0.057,0.001 0.114,0.003 0.171,0.004 0.266,0.008 0.36,0.017 0.452,0.034 0.545,0.052 0.612,0.086 0.678,0.147 0.896,0.352 1.015,0.506 1.066,0.65 1.183,0.975 1.236,1.198 1.245,1.399 1.262,1.729 1.278,2.067 1.214,2.33 1.103,2.783 0.941,3.1 0.706,3.324 0.609,3.416 0.511,3.461 0.378,3.474 0.257,3.486 0.137,3.493 0.017,3.499 Z m -2.462,-3.345 c -0.578,0 -1.065,0.366 -1.214,0.911 -0.028,0.104 -0.077,0.277 -0.077,0.491 l 0.017,4.305 c 0.003,0.606 0.006,1.212 -0.006,1.818 -0.002,0.125 -0.023,0.249 -0.04,0.373 l -0.173,1.412 0.351,0.471 c 0.134,0.154 0.436,0.414 0.943,0.417 l 2.581,0.022 c 0.101,0 0.203,-0.003 0.304,-0.01 C 0.322,6.857 0.421,6.855 0.52,6.853 0.808,6.846 1.134,6.837 1.495,6.75 2.136,6.595 2.708,6.334 3.197,5.975 3.75,5.569 4.183,5.065 4.48,4.478 4.626,4.19 4.81,3.83 4.911,3.407 4.987,3.088 5.041,2.761 5.069,2.434 5.091,2.191 5.093,1.945 5.094,1.698 L 5.096,1.494 C 5.102,0.991 4.99,0.545 4.869,0.138 4.765,-0.217 4.629,-0.63 4.351,-1.029 L 4.27,-1.146 C 4.108,-1.377 3.945,-1.606 3.762,-1.817 3.54,-2.071 3.274,-2.297 2.948,-2.506 2.545,-2.765 2.153,-2.956 1.751,-3.087 1.285,-3.241 0.88,-3.316 0.479,-3.322 L -0.018,-3.325 -1.082,-3.344 -2.46,-3.345 Z" /></g><g
           transform="translate(297.0297,19.2322)"
           id="g128"><path
             id="path130"
             style="fill:#000000;fill-opacity:1;fill-rule:nonzero;stroke:none"
             d="m 0,0 c 0,-0.005 0,-0.011 -0.001,-0.016 -0.195,0 -0.39,0 -0.585,0 -0.11,-0.001 -0.137,-0.029 -0.137,-0.143 0.001,-0.166 0.005,-0.333 0.004,-0.499 -0.007,-1.631 -0.015,-3.262 -0.022,-4.894 -0.001,-0.213 0.034,-0.249 0.248,-0.247 0.366,0.004 0.731,0.007 1.097,0.018 0.154,0.005 0.309,0.021 0.46,0.05 0.299,0.058 0.561,0.19 0.786,0.4 0.29,0.272 0.544,0.568 0.68,0.947 0.125,0.349 0.226,0.704 0.244,1.079 0.021,0.42 0.038,0.84 -0.063,1.252 C 2.568,-1.468 2.33,-0.932 1.884,-0.507 1.603,-0.238 1.267,-0.086 0.883,-0.049 0.59,-0.02 0.295,-0.015 0,0 m -0.686,-6.861 c -0.46,0 -0.92,10e-4 -1.38,-0.002 -0.061,0 -0.104,0.017 -0.119,0.074 -0.017,0.064 -0.038,0.13 -0.038,0.194 0.004,1.397 0.012,2.794 0.017,4.191 0.002,0.651 0.006,1.303 -0.006,1.954 -0.005,0.249 -0.054,0.498 -0.082,0.746 -0.026,0.218 -0.049,0.436 -0.077,0.654 -0.011,0.09 0.027,0.116 0.112,0.117 0.756,0.004 1.511,0.012 2.267,0.018 0.176,0.002 0.354,0.01 0.53,-0.003 C 0.9,1.056 1.267,1.083 1.625,0.996 2.096,0.883 2.534,0.694 2.922,0.41 3.317,0.12 3.639,-0.241 3.865,-0.687 4,-0.953 4.136,-1.22 4.205,-1.509 4.269,-1.774 4.312,-2.045 4.336,-2.316 4.361,-2.6 4.354,-2.887 4.358,-3.173 4.362,-3.523 4.276,-3.859 4.179,-4.191 4.092,-4.486 3.995,-4.778 3.817,-5.033 3.652,-5.267 3.491,-5.507 3.304,-5.723 3.141,-5.91 2.945,-6.066 2.733,-6.202 2.437,-6.393 2.129,-6.552 1.794,-6.662 1.49,-6.762 1.179,-6.835 0.858,-6.84 0.343,-6.848 -0.171,-6.842 -0.686,-6.842 c 0,-0.007 0,-0.013 0,-0.019" /></g><g
           transform="translate(296.5146,12.3002)"
           id="g132"><path
             id="path134"
             style="fill:#ffffff;fill-opacity:1;fill-rule:nonzero;stroke:none"
             d="M 0,0 C -0.151,0 -0.611,0 -0.986,0.377 -1.363,0.755 -1.361,1.229 -1.36,1.385 l 0.018,5.382 c 0,0.541 0.284,0.973 0.723,1.17 v 0.17 L 0.812,8.054 C 1.046,8.044 1.279,8.034 1.512,8.011 2.141,7.95 2.72,7.686 3.181,7.246 3.736,6.716 4.111,6.03 4.328,5.149 4.47,4.565 4.443,4.015 4.422,3.571 4.396,3.02 4.243,2.53 4.112,2.166 3.88,1.516 3.446,1.061 3.14,0.773 2.762,0.418 2.308,0.187 1.794,0.088 1.584,0.047 1.368,0.024 1.154,0.019 0.842,0.008 0.529,0.005 0.217,0.002 Z" /></g><g
           transform="translate(297.0297,19.2322)"
           id="g136"><path
             id="path138"
             style="fill:#43734c;fill-opacity:1;fill-rule:nonzero;stroke:none"
             d="M 0,0 C 0.295,-0.015 0.59,-0.02 0.883,-0.049 1.267,-0.086 1.603,-0.238 1.884,-0.507 2.33,-0.932 2.568,-1.468 2.711,-2.053 2.812,-2.465 2.795,-2.885 2.774,-3.305 2.756,-3.68 2.655,-4.035 2.53,-4.384 2.394,-4.763 2.14,-5.059 1.85,-5.331 1.625,-5.541 1.363,-5.673 1.064,-5.731 0.913,-5.76 0.758,-5.776 0.604,-5.781 0.238,-5.792 -0.127,-5.795 -0.493,-5.799 c -0.214,-0.002 -0.249,0.034 -0.248,0.247 0.007,1.632 0.015,3.263 0.022,4.894 0.001,0.166 -0.003,0.333 -0.004,0.499 0,0.114 0.027,0.142 0.137,0.143 0.195,0 0.39,0 0.585,0 C 0,-0.011 0,-0.005 0,0" /></g><g
           transform="translate(290.0063,2.704)"
           id="g140"><path
             id="path142"
             style="fill:#000000;fill-opacity:1;fill-rule:nonzero;stroke:none"
             d="M 0,0 C 0.003,0.015 0.005,0.03 0.008,0.044 -0.09,0.073 -0.187,0.102 -0.285,0.131 -0.334,0.143 -0.382,0.16 -0.431,0.167 -0.669,0.2 -0.909,0.221 -1.145,0.264 -1.473,0.324 -1.802,0.384 -2.123,0.473 -2.505,0.579 -2.889,0.682 -3.262,0.821 -3.504,0.911 -3.751,0.984 -3.993,1.074 -4.248,1.169 -4.5,1.271 -4.75,1.377 -5.087,1.52 -5.424,1.664 -5.756,1.818 c -0.221,0.102 -0.437,0.215 -0.65,0.333 -0.262,0.144 -0.518,0.298 -0.776,0.447 -0.222,0.129 -0.452,0.248 -0.666,0.39 -0.309,0.206 -0.609,0.424 -0.907,0.644 -0.649,0.478 -1.249,1.015 -1.798,1.602 -0.691,0.737 -1.263,1.564 -1.756,2.444 -0.207,0.37 -0.402,0.747 -0.589,1.127 -0.091,0.184 -0.152,0.383 -0.227,0.575 -0.016,0.04 -0.034,0.079 -0.051,0.119 -0.024,-0.101 -0.034,-0.196 -0.034,-0.292 0.001,-0.099 0.016,-0.198 0.016,-0.297 0.001,-1.957 0,-3.914 0.004,-5.871 0,-0.185 0.034,-0.37 0.05,-0.555 0.015,-0.168 0.02,-0.337 0.04,-0.504 0.038,-0.304 0.085,-0.608 0.126,-0.912 0.011,-0.083 0.012,-0.169 0.026,-0.251 0.015,-0.085 0.042,-0.169 0.064,-0.255 h -3.877 c -0.013,0.047 -0.031,0.087 -0.032,0.127 -0.008,0.169 -0.014,0.338 -0.014,0.507 -0.005,2.018 -0.01,4.035 -0.012,6.053 -0.004,3.035 -0.005,6.069 -0.007,9.103 0.003,0.013 0.007,0.026 0.01,0.038 -0.006,0.041 -0.012,0.081 -0.016,0.122 -0.013,0.128 -0.025,0.256 -0.038,0.384 -0.016,0.151 -0.034,0.302 -0.05,0.453 -0.01,0.102 -0.013,0.204 -0.025,0.305 -0.02,0.156 -0.062,0.311 -0.065,0.467 -0.005,0.232 -0.06,0.447 -0.148,0.657 -0.03,0.073 -0.049,0.151 -0.072,0.222 -0.014,-0.004 -0.036,-0.011 -0.058,-0.017 v 0.11 c 0.08,0 0.16,0.001 0.24,0.002 0.359,0.002 0.718,0.003 1.077,0.005 0.67,0.003 1.339,0.011 2.009,0.008 0.256,-0.001 0.512,-0.024 0.768,-0.037 0.011,-0.039 0.009,-0.099 0.035,-0.115 0.103,-0.066 0.108,-0.168 0.12,-0.27 -0.011,-0.046 -0.027,-0.091 -0.034,-0.138 -0.041,-0.294 -0.113,-0.588 -0.114,-0.883 -0.01,-2.322 -0.006,-4.645 -0.006,-6.967 v -0.096 c 0.007,-0.004 0.014,-0.007 0.021,-0.011 0.022,0.021 0.047,0.039 0.064,0.063 0.172,0.239 0.347,0.476 0.515,0.719 0.615,0.885 1.228,1.772 1.842,2.659 0.26,0.376 0.52,0.753 0.781,1.129 0.309,0.444 0.623,0.885 0.928,1.331 0.235,0.344 0.455,0.697 0.627,1.077 0.039,0.085 0.065,0.178 0.115,0.255 0.045,0.071 0.048,0.154 0.095,0.226 0.08,0.122 0.133,0.262 0.192,0.397 0.063,0.147 0.115,0.298 0.182,0.443 0.027,0.061 0.068,0.14 0.122,0.159 0.096,0.034 0.206,0.039 0.31,0.039 1.358,-0.003 2.716,-0.008 4.075,-0.014 0.031,-0.001 0.067,-0.005 0.094,-0.02 0.04,-0.021 0.092,-0.041 0.023,-0.1 -0.06,-0.05 -0.107,-0.116 -0.155,-0.18 C -3.547,18.53 -3.729,18.283 -3.915,18.039 -4.054,17.856 -4.202,17.681 -4.338,17.497 -4.798,16.879 -5.255,16.259 -5.712,15.639 -5.797,15.523 -5.871,15.4 -5.956,15.284 -6.051,15.154 -6.154,15.029 -6.251,14.9 -6.62,14.407 -6.988,13.912 -7.358,13.419 -7.861,12.749 -8.365,12.079 -8.869,11.41 -9.106,11.095 -9.347,10.782 -9.583,10.467 -9.639,10.393 -9.666,10.305 -9.634,10.212 -9.585,10.071 -9.536,9.93 -9.482,9.79 -9.229,9.134 -8.888,8.525 -8.477,7.957 -8.273,7.673 -8.053,7.398 -7.814,7.143 -7.502,6.809 -7.172,6.491 -6.835,6.182 -6.624,5.989 -6.388,5.822 -6.16,5.648 -6.024,5.545 -5.883,5.449 -5.743,5.353 -5.521,5.2 -5.298,5.05 -5.075,4.899 c 0.049,-0.033 0.1,-0.065 0.155,-0.1 0.011,0.025 0.023,0.041 0.025,0.057 0.012,0.151 0.034,0.301 0.033,0.452 -0.002,0.684 -0.011,1.369 -0.018,2.054 v 0.027 c 0,0.186 0.001,0.372 0.001,0.558 0,0.015 0,0.03 0,0.045 0.002,0.231 0.004,0.462 0.006,0.694 0,0.063 -0.003,0.127 0,0.19 0.004,0.071 0.018,0.143 0.017,0.214 -0.002,0.141 -0.009,0.283 -0.018,0.424 -0.009,0.137 -0.02,0.274 -0.037,0.41 -0.018,0.154 -0.047,0.308 -0.066,0.462 -0.015,0.13 -0.023,0.26 -0.033,0.377 0.313,0 0.607,0.009 0.9,-0.005 0.109,-0.005 0.237,-10e-4 0.317,-0.114 0.102,-0.143 0.21,-0.281 0.312,-0.424 0.472,-0.659 0.944,-1.319 1.413,-1.98 0.204,-0.287 0.395,-0.583 0.602,-0.868 0.273,-0.378 0.556,-0.749 0.834,-1.123 0.089,-0.156 0.277,-0.194 0.365,-0.07 0.096,0.136 0.186,0.276 0.278,0.415 0.231,0.349 0.465,0.696 0.692,1.048 0.622,0.963 1.242,1.928 1.858,2.895 0.075,0.117 0.175,0.167 0.301,0.171 0.204,0.006 0.409,0.003 0.613,10e-4 C 3.577,10.708 3.639,10.661 3.664,10.565 3.678,10.513 3.686,10.457 3.686,10.404 3.683,10.2 3.672,9.996 3.672,9.793 3.673,9.068 3.679,8.344 3.68,7.62 3.682,6.445 3.68,5.27 3.684,4.095 3.684,3.944 3.701,3.793 3.716,3.642 3.74,3.407 3.772,3.173 3.792,2.937 3.802,2.812 3.794,2.811 3.671,2.798 3.61,2.792 3.549,2.786 3.489,2.787 3.102,2.789 2.715,2.792 2.329,2.795 2.197,2.797 2.18,2.809 2.181,2.943 2.185,3.281 2.2,3.618 2.199,3.956 2.197,5.014 2.19,6.073 2.182,7.132 2.181,7.253 2.166,7.375 2.148,7.494 2.136,7.575 2.105,7.653 2.083,7.732 2.047,7.695 2.035,7.659 2.021,7.623 1.956,7.457 1.895,7.289 1.822,7.126 1.788,7.049 1.729,6.984 1.685,6.911 1.603,6.773 1.525,6.633 1.443,6.496 1.435,6.483 1.413,6.479 1.399,6.469 1.39,6.461 1.381,6.451 1.377,6.441 1.361,6.406 1.354,6.367 1.333,6.336 1.097,5.992 0.86,5.65 0.624,5.307 0.302,4.842 -0.014,4.373 -0.344,3.914 -0.418,3.811 -0.476,3.676 -0.619,3.634 -0.699,3.752 -0.775,3.874 -0.859,3.988 -1.472,4.826 -2.092,5.658 -2.7,6.5 -2.949,6.844 -3.173,7.205 -3.41,7.558 -3.445,7.611 -3.485,7.66 -3.521,7.709 c 0,-0.245 10e-4,-0.483 0,-0.722 C -3.523,6.698 -3.53,6.409 -3.529,6.121 -3.528,5.479 -3.524,4.836 -3.52,4.194 -3.519,4.109 -3.485,4.046 -3.403,4.009 -2.694,3.687 -1.975,3.39 -1.235,3.148 -1.031,3.081 -0.821,3.034 -0.614,2.977 -0.599,2.964 -0.587,2.944 -0.57,2.938 -0.44,2.896 -0.311,2.856 -0.18,2.818 -0.029,2.775 0.123,2.736 0.275,2.693 0.329,2.677 0.361,2.644 0.361,2.581 0.362,2.493 0.374,2.406 0.373,2.318 0.369,1.975 0.356,1.633 0.359,1.29 0.361,1.142 0.393,0.994 0.412,0.846 0.399,0.594 0.386,0.343 0.375,0.092 0.373,0.051 0.374,0.01 0.374,-0.031" /></g><g
           transform="translate(296.3437,12.3709)"
           id="g144"><path
             id="path146"
             style="fill:#43734c;fill-opacity:1;fill-rule:nonzero;stroke:none"
             d="m 0,0 c 0,0.006 0,0.013 0,0.019 0.515,0 1.029,-0.006 1.544,0.002 C 1.865,0.026 2.176,0.1 2.48,0.2 2.815,0.31 3.123,0.469 3.419,0.659 3.631,0.795 3.827,0.952 3.99,1.138 4.177,1.354 4.338,1.594 4.503,1.829 4.681,2.083 4.778,2.376 4.865,2.67 4.963,3.002 5.048,3.338 5.044,3.688 5.04,3.974 5.047,4.261 5.022,4.545 4.998,4.816 4.955,5.088 4.891,5.352 4.822,5.642 4.686,5.908 4.551,6.175 4.325,6.62 4.003,6.981 3.608,7.271 3.22,7.555 2.782,7.744 2.311,7.858 1.953,7.944 1.586,7.917 1.224,7.943 1.048,7.956 0.87,7.948 0.694,7.946 -0.062,7.941 -0.817,7.933 -1.573,7.928 -1.658,7.928 -1.696,7.902 -1.685,7.811 -1.657,7.594 -1.634,7.376 -1.608,7.158 -1.58,6.909 -1.531,6.661 -1.526,6.411 -1.514,5.76 -1.518,5.109 -1.52,4.457 -1.525,3.06 -1.533,1.664 -1.537,0.267 c 0,-0.065 0.021,-0.131 0.038,-0.194 0.015,-0.058 0.058,-0.075 0.119,-0.074 C -0.92,0.001 -0.46,0 0,0 m -19.376,9.019 c -0.012,0.102 -0.017,0.204 -0.12,0.27 -0.026,0.016 -0.024,0.076 -0.035,0.115 0.094,0.05 0.109,0.146 0.147,0.233 0.166,0.377 0.333,0.755 0.517,1.124 0.143,0.286 0.308,0.562 0.469,0.839 0.088,0.151 0.17,0.312 0.287,0.439 0.145,0.157 0.254,0.332 0.361,0.513 0.027,0.045 0.075,0.076 0.105,0.12 0.248,0.357 0.553,0.664 0.851,0.978 0.16,0.169 0.319,0.339 0.487,0.499 0.202,0.194 0.408,0.383 0.621,0.564 0.148,0.125 0.313,0.23 0.467,0.347 0.213,0.16 0.42,0.327 0.636,0.483 0.138,0.1 0.288,0.183 0.432,0.276 0.62,0.404 1.269,0.759 1.948,1.054 0.731,0.318 1.489,0.561 2.268,0.736 0.265,0.059 0.525,0.137 0.792,0.182 0.297,0.051 0.6,0.074 0.9,0.111 0.167,0.021 0.333,0.047 0.501,0.068 0.083,0.01 0.168,0.016 0.252,0.02 0.258,0.013 0.515,0.027 0.773,0.033 0.177,0.005 0.223,-0.046 0.224,-0.228 0,-0.21 -0.003,-0.42 -0.002,-0.63 0.005,-0.693 0.014,-1.386 0.016,-2.078 0,-0.199 -0.024,-0.398 -0.032,-0.597 -0.004,-0.113 0.071,-0.208 0.196,-0.209 0.27,-0.001 0.539,-0.014 0.808,-0.034 0.304,-0.023 0.607,-0.058 0.91,-0.091 0.242,-0.026 0.485,-0.048 0.724,-0.091 0.301,-0.055 0.596,-0.136 0.897,-0.193 0.811,-0.153 1.579,-0.44 2.339,-0.747 0.445,-0.18 0.871,-0.405 1.299,-0.621 0.247,-0.124 0.487,-0.262 0.723,-0.407 0.278,-0.171 0.549,-0.354 0.821,-0.535 0.478,-0.317 0.922,-0.679 1.34,-1.07 0.38,-0.354 0.76,-0.71 1.072,-1.13 C 4.882,9.006 5.175,8.669 5.418,8.3 5.99,7.433 6.421,6.497 6.729,5.504 6.83,5.178 6.932,4.855 6.975,4.517 7.015,4.213 7.059,3.907 7.07,3.601 7.09,3.058 7.096,2.514 7.088,1.97 7.084,1.728 7.032,1.487 7.002,1.245 6.981,1.069 6.972,0.89 6.935,0.716 6.842,0.275 6.696,-0.152 6.554,-0.581 6.357,-1.178 6.089,-1.743 5.768,-2.281 5.548,-2.649 5.294,-2.997 5.056,-3.354 4.982,-3.466 4.906,-3.576 4.834,-3.689 4.588,-4.067 4.28,-4.392 3.964,-4.71 3.548,-5.127 3.111,-5.519 2.624,-5.854 2.439,-5.981 2.27,-6.133 2.08,-6.253 1.724,-6.477 1.363,-6.696 0.993,-6.898 0.602,-7.112 0.203,-7.314 -0.203,-7.5 -0.521,-7.646 -0.849,-7.772 -1.181,-7.885 -1.634,-8.038 -2.094,-8.171 -2.553,-8.311 -2.758,-8.373 -2.962,-8.44 -3.171,-8.487 -3.435,-8.546 -3.703,-8.588 -3.97,-8.636 -4.154,-8.669 -4.338,-8.707 -4.524,-8.727 -4.778,-8.754 -5.034,-8.766 -5.289,-8.785 -5.425,-8.796 -5.56,-8.811 -5.696,-8.82 c -0.076,-0.005 -0.153,-10e-4 -0.23,-10e-4 -0.018,0.148 -0.051,0.296 -0.052,0.444 -0.003,0.343 0.01,0.685 0.013,1.028 10e-4,0.088 -0.011,0.176 -0.011,0.263 -0.001,0.063 -0.032,0.097 -0.087,0.112 -0.151,0.043 -0.304,0.082 -0.455,0.125 -0.13,0.038 -0.26,0.078 -0.389,0.12 -0.017,0.006 -0.03,0.026 -0.044,0.039 0.013,0.023 0.035,0.045 0.038,0.069 0.022,0.198 0.041,0.397 -0.043,0.588 0.143,0.042 0.2,0.177 0.275,0.28 0.33,0.459 0.646,0.928 0.967,1.393 0.237,0.343 0.474,0.686 0.709,1.029 0.021,0.031 0.029,0.07 0.044,0.105 0.005,0.01 0.014,0.021 0.023,0.028 0.014,0.01 0.036,0.014 0.044,0.027 0.082,0.138 0.16,0.277 0.242,0.415 0.044,0.073 0.103,0.138 0.137,0.215 0.072,0.163 0.134,0.331 0.199,0.497 0.014,0.036 0.026,0.072 0.062,0.109 0.022,-0.079 0.052,-0.157 0.065,-0.238 0.018,-0.119 0.032,-0.241 0.033,-0.362 0.009,-1.059 0.015,-2.117 0.018,-3.176 0.001,-0.338 -0.014,-0.675 -0.018,-1.013 -0.002,-0.134 0.015,-0.146 0.147,-0.147 0.387,-0.004 0.774,-0.007 1.16,-0.009 0.061,0 0.122,0.005 0.182,0.011 0.124,0.013 0.132,0.014 0.122,0.139 -0.02,0.236 -0.053,0.47 -0.076,0.706 -0.015,0.15 -0.032,0.302 -0.033,0.453 -0.003,1.174 -0.002,2.349 -0.004,3.524 -10e-4,0.724 -0.006,1.449 -0.007,2.173 -10e-4,0.203 0.011,0.407 0.013,0.611 C -2.651,0.79 -2.659,0.846 -2.673,0.898 -2.698,0.994 -2.76,1.041 -2.863,1.042 -3.067,1.045 -3.271,1.047 -3.475,1.041 -3.602,1.037 -3.701,0.987 -3.776,0.87 c -0.616,-0.967 -1.237,-1.931 -1.858,-2.895 -0.227,-0.352 -0.461,-0.699 -0.692,-1.048 -0.092,-0.139 -0.183,-0.279 -0.279,-0.415 -0.087,-0.124 -0.275,-0.086 -0.364,0.071 0.017,0.019 0.046,0.036 0.05,0.057 0.012,0.066 0.023,0.133 0.02,0.199 -0.007,0.203 -0.027,0.405 -0.032,0.607 -0.01,0.42 -0.018,0.84 -0.018,1.259 -0.002,3.577 -0.001,7.153 -0.001,10.73 -10e-4,2.029 -0.004,4.058 -0.003,6.087 0,0.517 0.015,1.033 0.018,1.549 0,0.141 -0.019,0.283 -0.035,0.424 -0.001,0.018 -0.031,0.045 -0.049,0.047 -0.08,0.008 -0.162,0.017 -0.242,0.011 -0.254,-0.02 -0.508,-0.046 -0.761,-0.072 -0.326,-0.034 -0.654,-0.055 -0.977,-0.109 -0.324,-0.053 -0.645,-0.127 -0.961,-0.214 -0.487,-0.134 -0.972,-0.277 -1.452,-0.436 -0.301,-0.1 -0.593,-0.231 -0.885,-0.358 -0.271,-0.118 -0.544,-0.235 -0.802,-0.379 -0.392,-0.219 -0.775,-0.456 -1.156,-0.696 -0.228,-0.143 -0.449,-0.3 -0.666,-0.462 -0.163,-0.121 -0.316,-0.257 -0.471,-0.39 -0.162,-0.138 -0.33,-0.271 -0.481,-0.42 -0.448,-0.442 -0.906,-0.876 -1.297,-1.372 -0.188,-0.237 -0.416,-0.444 -0.552,-0.72 -0.007,-0.014 -0.018,-0.025 -0.027,-0.037 -0.306,-0.371 -0.554,-0.78 -0.764,-1.212 -0.018,-0.038 -0.026,-0.081 -0.046,-0.118 -0.084,-0.15 -0.172,-0.298 -0.255,-0.449 -0.031,-0.056 -0.047,-0.12 -0.075,-0.177 -0.065,-0.129 -0.134,-0.255 -0.201,-0.383 -0.065,-0.125 -0.128,-0.25 -0.194,-0.374 -0.029,-0.053 -0.061,-0.104 -0.092,-0.156" /></g><g
           transform="translate(289.8233,2.7225)"
           id="g148"><path
             id="path150"
             style="fill:#43734c;fill-opacity:1;fill-rule:nonzero;stroke:none"
             d="M 0,0 C -0.034,0.037 -0.068,0.075 -0.102,0.112 -0.004,0.084 0.093,0.055 0.191,0.026 0.188,0.011 0.186,-0.004 0.183,-0.019 0.122,-0.012 0.061,-0.006 0,0" /></g><g
           transform="translate(285.1269,10.6505)"
           id="g152"><path
             id="path154"
             style="fill:#43734c;fill-opacity:1;fill-rule:nonzero;stroke:none"
             d="M 0,0 C -0.015,0.005 -0.03,0.011 -0.061,0.023 -0.03,0.034 -0.015,0.04 0,0.045 0,0.03 0,0.015 0,0" /></g><g
           transform="translate(273.18,19.0562)"
           id="g156"><path
             id="path158"
             style="fill:#43734c;fill-opacity:1;fill-rule:nonzero;stroke:none"
             d="M 0,0 C 0.003,0.013 0.007,0.026 0.01,0.038 0.007,0.025 0.003,0.013 0,0" /></g><g
           transform="translate(285.1267,10.0656)"
           id="g160"><path
             id="path162"
             style="fill:#43734c;fill-opacity:1;fill-rule:nonzero;stroke:none"
             d="M 0,0 C -0.007,0.004 -0.014,0.007 -0.02,0.011 -0.014,0.017 -0.007,0.022 0,0.028 Z" /></g><g
           transform="translate(289.7784,2.7261)"
           id="g164"><path
             id="path166"
             style="fill:#43734c;fill-opacity:1;fill-rule:nonzero;stroke:none"
             d="M 0,0 C 0.007,-0.001 0.015,-0.001 0.022,-0.002 0.015,-0.001 0.007,-0.001 0,0" /></g><g
           transform="translate(297.0297,19.2322)"
           id="g168"><path
             id="path170"
             style="fill:#000000;fill-opacity:1;fill-rule:nonzero;stroke:none"
             d="m 0,0 c 0,-0.005 0,-0.011 -0.001,-0.016 -0.195,0 -0.39,0 -0.585,0 -0.11,-0.001 -0.137,-0.029 -0.137,-0.143 0.001,-0.166 0.005,-0.333 0.004,-0.499 -0.007,-1.631 -0.015,-3.262 -0.022,-4.894 -0.001,-0.213 0.034,-0.249 0.248,-0.247 0.366,0.004 0.731,0.007 1.097,0.018 0.154,0.005 0.309,0.021 0.46,0.05 0.299,0.058 0.561,0.19 0.786,0.4 0.29,0.272 0.544,0.568 0.68,0.947 0.125,0.349 0.226,0.704 0.244,1.079 0.021,0.42 0.038,0.84 -0.063,1.252 C 2.568,-1.468 2.33,-0.932 1.884,-0.507 1.603,-0.238 1.267,-0.086 0.883,-0.049 0.59,-0.02 0.295,-0.015 0,0 m -0.686,-6.861 c -0.46,0 -0.92,10e-4 -1.38,-0.002 -0.061,0 -0.104,0.017 -0.119,0.074 -0.017,0.064 -0.038,0.13 -0.038,0.194 0.004,1.397 0.012,2.794 0.017,4.191 0.002,0.651 0.006,1.303 -0.006,1.954 -0.005,0.249 -0.054,0.498 -0.082,0.746 -0.026,0.218 -0.049,0.436 -0.077,0.654 -0.011,0.09 0.027,0.116 0.112,0.117 0.756,0.004 1.511,0.012 2.267,0.018 0.176,0.002 0.354,0.01 0.53,-0.003 C 0.9,1.056 1.267,1.083 1.625,0.996 2.096,0.883 2.534,0.694 2.922,0.41 3.317,0.12 3.639,-0.241 3.865,-0.687 4,-0.953 4.136,-1.22 4.205,-1.509 4.269,-1.774 4.312,-2.045 4.336,-2.316 4.361,-2.6 4.354,-2.887 4.358,-3.173 4.362,-3.523 4.276,-3.859 4.179,-4.191 4.092,-4.486 3.995,-4.778 3.817,-5.033 3.652,-5.267 3.491,-5.507 3.304,-5.723 3.141,-5.91 2.945,-6.066 2.733,-6.202 2.437,-6.393 2.129,-6.552 1.794,-6.662 1.49,-6.762 1.179,-6.835 0.858,-6.84 0.343,-6.848 -0.171,-6.842 -0.686,-6.842 c 0,-0.007 0,-0.013 0,-0.019" /></g><g
           transform="translate(297.0297,19.2322)"
           id="g172"><path
             id="path174"
             style="fill:#43734c;fill-opacity:1;fill-rule:nonzero;stroke:none"
             d="M 0,0 C 0.295,-0.015 0.59,-0.02 0.883,-0.049 1.267,-0.086 1.603,-0.238 1.884,-0.507 2.33,-0.932 2.568,-1.468 2.711,-2.053 2.812,-2.465 2.795,-2.885 2.774,-3.305 2.756,-3.68 2.655,-4.035 2.53,-4.384 2.394,-4.763 2.14,-5.059 1.85,-5.331 1.625,-5.541 1.363,-5.673 1.064,-5.731 0.913,-5.76 0.758,-5.776 0.604,-5.781 0.238,-5.792 -0.127,-5.795 -0.493,-5.799 c -0.214,-0.002 -0.249,0.034 -0.248,0.247 0.007,1.632 0.015,3.263 0.022,4.894 0.001,0.166 -0.003,0.333 -0.004,0.499 0,0.114 0.027,0.142 0.137,0.143 0.195,0 0.39,0 0.585,0 C 0,-0.011 0,-0.005 0,0" /></g></g></g></g></svg>