<?xml version="1.0" encoding="UTF-8" standalone="no"?>
<svg
   xmlns:dc="http://purl.org/dc/elements/1.1/"
   xmlns:cc="http://creativecommons.org/ns#"
   xmlns:rdf="http://www.w3.org/1999/02/22-rdf-syntax-ns#"
   xmlns:svg="http://www.w3.org/2000/svg"
   xmlns="http://www.w3.org/2000/svg"
   viewBox="0 0 310.34799 280.08667"
   height="280.08667"
   width="310.34799"
   xml:space="preserve"
   id="svg2"
   version="1.1"><metadata
     id="metadata8"><rdf:RDF><cc:Work
         rdf:about=""><dc:format>image/svg+xml</dc:format><dc:type
           rdf:resource="http://purl.org/dc/dcmitype/StillImage" /></cc:Work></rdf:RDF></metadata><defs
     id="defs6"><clipPath
       id="clipPath18"
       clipPathUnits="userSpaceOnUse"><path
         id="path16"
         d="M 0,210.065 H 232.761 V 0 H 0 Z" /></clipPath></defs><g
     transform="matrix(1.3333333,0,0,-1.3333333,0,280.08667)"
     id="g10"><g
       id="g12"><g
         clip-path="url(#clipPath18)"
         id="g14"><g
           transform="translate(131.0054,0.2356)"
           id="g20"><path
             id="path22"
             style="fill:#000000;fill-opacity:1;fill-rule:nonzero;stroke:none"
             d="m 0,0 c 0.02,0.112 0.039,0.224 0.059,0.336 -0.738,0.219 -1.477,0.437 -2.216,0.656 -0.37,0.093 -0.736,0.222 -1.112,0.274 -1.801,0.25 -3.618,0.406 -5.404,0.732 -2.487,0.455 -4.985,0.909 -7.417,1.586 -2.895,0.805 -5.803,1.588 -8.628,2.639 -1.831,0.681 -3.709,1.234 -5.539,1.916 -1.931,0.719 -3.843,1.492 -5.74,2.295 -2.553,1.082 -5.102,2.178 -7.619,3.34 -1.675,0.773 -3.313,1.635 -4.929,2.526 -1.98,1.092 -3.92,2.256 -5.876,3.39 -1.687,0.977 -3.427,1.876 -5.047,2.953 -2.339,1.556 -4.614,3.213 -6.877,4.88 -4.917,3.622 -9.459,7.687 -13.625,12.135 -5.232,5.588 -9.564,11.858 -13.303,18.527 -1.571,2.8 -3.044,5.659 -4.465,8.539 -0.687,1.394 -1.15,2.898 -1.719,4.351 -0.119,0.304 -0.256,0.601 -0.384,0.901 -0.184,-0.762 -0.261,-1.485 -0.258,-2.207 0.003,-0.752 0.123,-1.504 0.123,-2.255 0.008,-14.828 -0.005,-29.656 0.024,-44.484 0.003,-1.402 0.263,-2.803 0.385,-4.206 0.111,-1.272 0.147,-2.552 0.303,-3.818 0.285,-2.309 0.64,-4.609 0.953,-6.914 0.086,-0.632 0.088,-1.276 0.198,-1.903 0.114,-0.645 0.313,-1.276 0.479,-1.933 h -29.374 c -0.095,0.358 -0.233,0.66 -0.246,0.966 -0.057,1.279 -0.102,2.559 -0.105,3.838 -0.035,15.291 -0.073,30.582 -0.09,45.873 -0.027,22.992 -0.037,45.985 -0.055,68.978 0.026,0.097 0.052,0.193 0.078,0.29 -0.041,0.307 -0.092,0.613 -0.124,0.921 -0.098,0.97 -0.182,1.941 -0.284,2.91 -0.12,1.145 -0.261,2.287 -0.376,3.432 -0.078,0.769 -0.099,1.545 -0.196,2.311 -0.151,1.182 -0.47,2.356 -0.492,3.537 -0.032,1.757 -0.452,3.386 -1.119,4.984 -0.231,0.552 -0.374,1.141 -0.546,1.677 -0.106,-0.03 -0.274,-0.078 -0.442,-0.126 0,0.277 0,0.553 0,0.83 0.606,0.005 1.213,0.012 1.819,0.015 2.721,0.015 5.442,0.028 8.162,0.042 5.075,0.025 10.151,0.079 15.226,0.061 1.941,-0.007 3.881,-0.182 5.822,-0.28 0.082,-0.3 0.067,-0.751 0.262,-0.875 0.782,-0.502 0.819,-1.274 0.911,-2.048 -0.088,-0.346 -0.208,-0.688 -0.257,-1.04 -0.312,-2.229 -0.86,-4.46 -0.87,-6.692 -0.071,-17.599 -0.039,-35.198 -0.039,-52.797 0,-0.242 0,-0.484 0,-0.726 0.054,-0.027 0.107,-0.054 0.16,-0.081 0.162,0.157 0.351,0.294 0.481,0.474 1.307,1.811 2.628,3.613 3.901,5.447 4.662,6.711 9.307,13.434 13.958,20.152 1.974,2.851 3.941,5.707 5.921,8.553 2.342,3.366 4.719,6.708 7.034,10.092 1.78,2.601 3.443,5.278 4.748,8.157 0.293,0.645 0.492,1.347 0.869,1.935 0.344,0.537 0.366,1.162 0.725,1.71 0.606,0.923 1.007,1.985 1.45,3.007 0.481,1.112 0.876,2.261 1.379,3.362 0.21,0.46 0.522,1.06 0.927,1.204 0.728,0.258 1.562,0.296 2.351,0.294 10.291,-0.021 20.582,-0.065 30.873,-0.111 0.242,-0.001 0.51,-0.036 0.719,-0.145 0.301,-0.158 0.697,-0.311 0.172,-0.757 -0.453,-0.384 -0.813,-0.887 -1.176,-1.365 -1.403,-1.853 -2.779,-3.727 -4.189,-5.575 -1.052,-1.38 -2.172,-2.71 -3.207,-4.103 -3.485,-4.682 -6.95,-9.379 -10.409,-14.08 -0.645,-0.876 -1.208,-1.813 -1.85,-2.692 -0.721,-0.986 -1.5,-1.929 -2.232,-2.907 -2.803,-3.737 -5.591,-7.485 -8.394,-11.222 -3.811,-5.08 -7.626,-10.156 -11.447,-15.227 -1.798,-2.388 -3.625,-4.754 -5.415,-7.147 -0.419,-0.56 -0.629,-1.223 -0.385,-1.93 0.37,-1.07 0.748,-2.139 1.154,-3.196 1.914,-4.971 4.499,-9.587 7.612,-13.893 1.552,-2.147 3.216,-4.234 5.024,-6.167 2.366,-2.528 4.867,-4.939 7.42,-7.279 1.599,-1.466 3.387,-2.728 5.117,-4.046 1.027,-0.783 2.098,-1.508 3.163,-2.24 1.678,-1.154 3.368,-2.293 5.055,-3.435 0.376,-0.254 0.762,-0.493 1.176,-0.76 0.085,0.19 0.177,0.308 0.188,0.434 0.097,1.139 0.258,2.28 0.254,3.419 -0.019,5.189 -0.085,10.376 -0.134,15.564 0,0.071 0,0.141 0,0.211 10e-4,1.408 10e-4,2.815 10e-4,4.222 0.001,0.113 0.001,0.227 0.002,0.341 0.015,1.753 0.031,3.506 0.045,5.259 0.003,0.481 -0.017,0.963 0.006,1.443 0.025,0.541 0.129,1.082 0.122,1.622 -0.015,1.072 -0.064,2.144 -0.134,3.214 -0.067,1.037 -0.153,2.073 -0.278,3.104 -0.142,1.171 -0.358,2.333 -0.499,3.503 -0.118,0.982 -0.175,1.971 -0.25,2.856 2.365,0 4.594,0.068 6.815,-0.035 0.827,-0.038 1.796,-0.012 2.404,-0.865 0.77,-1.083 1.588,-2.133 2.361,-3.214 3.578,-4.998 7.157,-9.994 10.714,-15.007 1.543,-2.174 2.992,-4.414 4.555,-6.574 2.072,-2.862 4.213,-5.674 6.324,-8.507 0.676,-1.185 2.098,-1.475 2.761,-0.537 0.729,1.031 1.414,2.091 2.111,3.144 1.752,2.646 3.523,5.279 5.244,7.945 4.711,7.301 9.413,14.608 14.082,21.935 0.567,0.89 1.319,1.269 2.28,1.296 1.545,0.044 3.093,0.029 4.64,0.011 0.778,-0.009 1.246,-0.368 1.436,-1.094 0.104,-0.395 0.166,-0.814 0.162,-1.221 -0.017,-1.544 -0.104,-3.087 -0.102,-4.631 0.006,-5.487 0.049,-10.975 0.058,-16.462 0.015,-8.903 0.005,-17.806 0.031,-26.708 0.003,-1.145 0.132,-2.291 0.245,-3.433 0.177,-1.783 0.425,-3.559 0.574,-5.344 0.079,-0.946 0.015,-0.958 -0.919,-1.052 -0.458,-0.046 -0.919,-0.09 -1.378,-0.088 -2.93,0.015 -5.86,0.042 -8.79,0.066 -1.001,0.008 -1.13,0.105 -1.118,1.118 0.031,2.558 0.144,5.115 0.137,7.673 -0.02,8.024 -0.072,16.048 -0.134,24.071 -0.007,0.916 -0.117,1.837 -0.256,2.744 -0.093,0.611 -0.322,1.202 -0.49,1.802 -0.274,-0.282 -0.363,-0.557 -0.469,-0.826 -0.495,-1.26 -0.959,-2.535 -1.509,-3.77 -0.259,-0.581 -0.706,-1.076 -1.036,-1.628 -0.622,-1.043 -1.217,-2.102 -1.838,-3.145 -0.058,-0.099 -0.227,-0.127 -0.33,-0.206 -0.071,-0.054 -0.136,-0.13 -0.172,-0.211 -0.117,-0.262 -0.175,-0.56 -0.333,-0.791 -1.783,-2.606 -3.58,-5.202 -5.374,-7.8 -2.434,-3.525 -4.83,-7.076 -7.331,-10.552 -0.565,-0.785 -0.999,-1.805 -2.085,-2.123 -0.605,0.896 -1.181,1.813 -1.819,2.684 -4.648,6.344 -9.342,12.655 -13.948,19.028 -1.885,2.608 -3.588,5.347 -5.379,8.022 -0.268,0.399 -0.571,0.774 -0.843,1.141 0,-1.854 0.009,-3.661 -0.002,-5.468 -0.013,-2.189 -0.065,-4.378 -0.06,-6.567 0.01,-4.865 0.042,-9.73 0.07,-14.595 0.004,-0.644 0.262,-1.123 0.888,-1.407 5.37,-2.441 10.818,-4.69 16.429,-6.522 1.544,-0.505 3.134,-0.867 4.702,-1.295 0.111,-0.102 0.206,-0.255 0.336,-0.297 0.979,-0.316 1.961,-0.622 2.95,-0.907 1.146,-0.329 2.3,-0.626 3.448,-0.95 C 2.495,20.289 2.733,20.034 2.736,19.559 2.74,18.894 2.833,18.229 2.825,17.565 2.797,14.968 2.698,12.371 2.723,9.775 2.733,8.652 2.979,7.53 3.119,6.408 3.024,4.503 2.928,2.599 2.838,0.694 2.824,0.385 2.836,0.074 2.837,-0.236" /></g><g
           transform="translate(179.0276,73.4875)"
           id="g24"><path
             id="path26"
             style="fill:#43734c;fill-opacity:1;fill-rule:nonzero;stroke:none"
             d="m 0,0 c 0,0.048 0,0.096 0,0.144 3.9,0 7.8,-0.045 11.699,0.017 2.43,0.038 4.787,0.594 7.096,1.353 2.534,0.832 4.873,2.039 7.113,3.479 1.604,1.031 3.091,2.219 4.323,3.633 1.424,1.634 2.64,3.452 3.888,5.231 1.353,1.928 2.086,4.145 2.743,6.376 0.742,2.518 1.39,5.062 1.358,7.717 -0.026,2.165 0.024,4.34 -0.165,6.492 -0.181,2.052 -0.511,4.11 -0.992,6.113 -0.527,2.194 -1.553,4.213 -2.577,6.234 -1.71,3.376 -4.154,6.112 -7.15,8.308 -2.933,2.151 -6.258,3.584 -9.821,4.444 -2.719,0.657 -5.495,0.452 -8.243,0.65 -1.333,0.096 -2.678,0.035 -4.017,0.024 -5.723,-0.045 -11.447,-0.104 -17.171,-0.138 -0.649,-0.004 -0.935,-0.2 -0.849,-0.885 0.209,-1.649 0.386,-3.303 0.577,-4.955 0.217,-1.884 0.586,-3.766 0.622,-5.654 0.095,-4.935 0.063,-9.872 0.047,-14.808 -0.034,-10.584 -0.094,-21.169 -0.125,-31.754 -0.002,-0.491 0.153,-0.989 0.284,-1.471 0.118,-0.437 0.441,-0.562 0.901,-0.56 C -6.973,0.008 -3.486,0 0,0 m -146.825,68.34 c -0.092,0.774 -0.129,1.546 -0.912,2.048 -0.194,0.125 -0.18,0.575 -0.261,0.875 0.713,0.374 0.822,1.101 1.112,1.76 1.26,2.86 2.527,5.721 3.92,8.517 1.081,2.17 2.331,4.258 3.55,6.357 0.667,1.148 1.29,2.368 2.179,3.328 1.101,1.188 1.926,2.518 2.736,3.888 0.201,0.34 0.567,0.579 0.795,0.908 1.879,2.705 4.189,5.035 6.444,7.412 1.213,1.279 2.419,2.568 3.691,3.786 1.531,1.465 3.093,2.902 4.71,4.269 1.121,0.947 2.367,1.744 3.541,2.629 1.61,1.213 3.18,2.481 4.813,3.661 1.049,0.757 2.188,1.386 3.274,2.093 4.703,3.063 9.62,5.75 14.76,7.987 5.54,2.411 11.287,4.25 17.193,5.574 2.001,0.449 3.976,1.038 5.994,1.383 2.255,0.386 4.547,0.558 6.82,0.839 1.268,0.156 2.53,0.355 3.797,0.512 0.634,0.079 1.274,0.127 1.913,0.158 1.952,0.095 3.905,0.198 5.859,0.251 1.339,0.036 1.688,-0.349 1.692,-1.732 0.005,-1.591 -0.021,-3.183 -0.009,-4.774 0.037,-5.249 0.106,-10.499 0.115,-15.749 0.002,-1.507 -0.179,-3.015 -0.237,-4.524 -0.033,-0.853 0.535,-1.576 1.487,-1.58 2.039,-0.009 4.081,-0.107 6.116,-0.261 2.304,-0.174 4.603,-0.434 6.901,-0.685 1.831,-0.201 3.673,-0.365 5.483,-0.692 2.279,-0.412 4.52,-1.031 6.796,-1.461 6.144,-1.162 11.97,-3.335 17.729,-5.662 3.365,-1.36 6.594,-3.069 9.843,-4.702 1.87,-0.941 3.691,-1.991 5.475,-3.087 2.109,-1.296 4.163,-2.683 6.225,-4.053 3.621,-2.406 6.986,-5.146 10.154,-8.106 2.875,-2.686 5.758,-5.382 8.12,-8.569 2.001,-2.697 4.218,-5.247 6.064,-8.044 4.333,-6.569 7.598,-13.659 9.931,-21.19 0.764,-2.465 1.538,-4.914 1.869,-7.473 0.298,-2.308 0.632,-4.623 0.716,-6.943 0.15,-4.116 0.195,-8.24 0.134,-12.359 C 53.68,13.095 53.286,11.267 53.061,9.436 52.896,8.099 52.833,6.741 52.554,5.429 51.845,2.082 50.738,-1.154 49.665,-4.4 c -1.496,-4.527 -3.524,-8.81 -5.958,-12.887 -1.666,-2.789 -3.589,-5.425 -5.396,-8.131 -0.563,-0.843 -1.132,-1.683 -1.683,-2.534 -1.859,-2.867 -4.198,-5.328 -6.592,-7.736 -3.147,-3.164 -6.464,-6.132 -10.154,-8.668 -1.404,-0.965 -2.682,-2.121 -4.12,-3.026 -2.702,-1.699 -5.434,-3.359 -8.235,-4.887 -2.968,-1.62 -5.991,-3.154 -9.064,-4.565 -2.409,-1.106 -4.898,-2.061 -7.41,-2.912 -3.436,-1.163 -6.924,-2.173 -10.396,-3.231 -1.554,-0.473 -3.105,-0.98 -4.689,-1.335 -2,-0.449 -4.03,-0.767 -6.05,-1.127 -1.396,-0.248 -2.789,-0.539 -4.196,-0.69 -1.927,-0.207 -3.866,-0.295 -5.799,-0.444 -1.028,-0.079 -2.053,-0.194 -3.082,-0.26 -0.579,-0.038 -1.163,-0.01 -1.745,-0.011 -0.139,1.122 -0.385,2.244 -0.396,3.367 -0.024,2.596 0.075,5.193 0.103,7.79 0.007,0.664 -0.085,1.329 -0.089,1.994 -0.003,0.475 -0.241,0.73 -0.656,0.847 -1.147,0.324 -2.302,0.621 -3.447,0.95 -0.989,0.285 -1.971,0.591 -2.95,0.907 -0.13,0.042 -0.225,0.196 -0.336,0.297 0.1,0.173 0.268,0.339 0.288,0.521 0.167,1.504 0.316,3.012 -0.326,4.458 1.086,0.318 1.52,1.338 2.084,2.123 2.502,3.476 4.898,7.027 7.332,10.552 1.794,2.598 3.591,5.194 5.373,7.8 0.159,0.231 0.217,0.529 0.334,0.791 0.035,0.081 0.101,0.158 0.172,0.211 0.103,0.079 0.271,0.108 0.33,0.206 0.621,1.044 1.215,2.102 1.838,3.145 0.33,0.552 0.777,1.047 1.036,1.628 0.55,1.236 1.014,2.51 1.509,3.77 0.106,0.269 0.195,0.544 0.469,0.826 0.168,-0.6 0.396,-1.191 0.49,-1.802 0.139,-0.907 0.249,-1.828 0.256,-2.744 0.062,-8.023 0.114,-16.047 0.134,-24.071 0.006,-2.558 -0.106,-5.115 -0.137,-7.673 -0.012,-1.013 0.117,-1.11 1.118,-1.118 2.93,-0.024 5.86,-0.051 8.79,-0.066 0.459,-0.002 0.92,0.042 1.377,0.088 0.934,0.094 0.999,0.106 0.92,1.052 -0.149,1.785 -0.397,3.561 -0.574,5.344 -0.113,1.142 -0.242,2.288 -0.246,3.433 -0.025,8.902 -0.015,17.805 -0.03,26.708 -0.009,5.488 -0.052,10.975 -0.058,16.463 -0.002,1.543 0.084,3.086 0.102,4.63 0.004,0.407 -0.058,0.826 -0.162,1.221 -0.19,0.726 -0.658,1.085 -1.437,1.094 -1.546,0.018 -3.094,0.033 -4.639,-0.011 -0.961,-0.027 -1.713,-0.406 -2.281,-1.296 -4.668,-7.327 -9.37,-14.634 -14.081,-21.934 -1.721,-2.667 -3.492,-5.3 -5.244,-7.946 -0.697,-1.052 -1.383,-2.113 -2.111,-3.144 -0.664,-0.938 -2.085,-0.648 -2.761,0.537 0.132,0.145 0.349,0.273 0.38,0.436 0.094,0.496 0.174,1.007 0.155,1.508 -0.058,1.534 -0.206,3.066 -0.243,4.601 -0.076,3.18 -0.141,6.361 -0.143,9.541 -0.01,27.101 -0.002,54.201 -0.007,81.302 -0.002,15.376 -0.029,30.753 -0.02,46.13 0.002,3.912 0.118,7.825 0.135,11.738 0.005,1.07 -0.145,2.142 -0.259,3.209 -0.015,0.136 -0.236,0.343 -0.377,0.358 -0.607,0.063 -1.225,0.13 -1.83,0.081 -1.926,-0.153 -3.85,-0.346 -5.772,-0.544 -2.47,-0.254 -4.956,-0.419 -7.402,-0.823 -2.45,-0.405 -4.885,-0.965 -7.28,-1.624 -3.691,-1.017 -7.368,-2.099 -11,-3.305 -2.285,-0.757 -4.496,-1.749 -6.706,-2.712 -2.054,-0.895 -4.126,-1.781 -6.078,-2.872 -2.974,-1.661 -5.876,-3.457 -8.761,-5.27 -1.732,-1.089 -3.406,-2.279 -5.048,-3.501 -1.237,-0.921 -2.392,-1.955 -3.568,-2.956 -1.228,-1.047 -2.498,-2.054 -3.644,-3.185 -3.397,-3.352 -6.864,-6.639 -9.833,-10.398 -1.421,-1.798 -3.147,-3.361 -4.181,-5.457 -0.05,-0.101 -0.133,-0.187 -0.206,-0.276 -2.32,-2.816 -4.193,-5.913 -5.787,-9.185 -0.14,-0.287 -0.194,-0.617 -0.348,-0.894 -0.634,-1.139 -1.305,-2.258 -1.931,-3.401 -0.233,-0.426 -0.355,-0.911 -0.573,-1.345 -0.491,-0.975 -1.012,-1.935 -1.518,-2.903 -0.493,-0.942 -0.975,-1.891 -1.474,-2.83 -0.216,-0.405 -0.463,-0.792 -0.696,-1.187" /></g><g
           transform="translate(129.6186,0.376)"
           id="g28"><path
             id="path30"
             style="fill:#43734c;fill-opacity:1;fill-rule:nonzero;stroke:none"
             d="M 0,0 C -0.257,0.284 -0.514,0.568 -0.77,0.852 -0.031,0.633 0.707,0.414 1.446,0.196 1.426,0.084 1.406,-0.028 1.387,-0.14 0.925,-0.094 0.462,-0.047 0,0" /></g><g
           transform="translate(94.0308,60.4513)"
           id="g32"><path
             id="path34"
             style="fill:#43734c;fill-opacity:1;fill-rule:nonzero;stroke:none"
             d="m 0,0 c -0.112,0.042 -0.225,0.083 -0.464,0.172 0.24,0.088 0.353,0.129 0.466,0.17 C 0.001,0.228 0.001,0.114 0,0" /></g><g
           transform="translate(3.5017,124.1465)"
           id="g36"><path
             id="path38"
             style="fill:#43734c;fill-opacity:1;fill-rule:nonzero;stroke:none"
             d="M 0,0 C 0.026,0.097 0.052,0.193 0.078,0.29 0.052,0.193 0.026,0.097 0,0" /></g><g
           transform="translate(94.0295,56.0191)"
           id="g40"><path
             id="path42"
             style="fill:#43734c;fill-opacity:1;fill-rule:nonzero;stroke:none"
             d="M 0,0 C -0.051,0.028 -0.103,0.056 -0.154,0.084 -0.103,0.126 -0.051,0.169 0,0.211 0,0.141 0,0.07 0,0" /></g><g
           transform="translate(129.2782,0.4027)"
           id="g44"><path
             id="path46"
             style="fill:#43734c;fill-opacity:1;fill-rule:nonzero;stroke:none"
             d="M 0,0 C 0.056,-0.005 0.112,-0.01 0.168,-0.014 0.112,-0.01 0.056,-0.005 0,0" /></g><g
           transform="translate(184.226,125.4802)"
           id="g48"><path
             id="path50"
             style="fill:#000000;fill-opacity:1;fill-rule:nonzero;stroke:none"
             d="m 0,0 c -0.002,-0.04 -0.003,-0.081 -0.005,-0.121 -1.478,0 -2.956,0.003 -4.433,-0.002 -0.833,-0.003 -1.041,-0.218 -1.039,-1.081 0.003,-1.26 0.035,-2.521 0.029,-3.781 -0.054,-12.361 -0.114,-24.723 -0.17,-37.084 -0.007,-1.615 0.262,-1.889 1.885,-1.871 2.769,0.031 5.539,0.048 8.306,0.135 1.168,0.037 2.345,0.158 3.491,0.379 2.263,0.436 4.253,1.438 5.955,3.032 2.196,2.056 4.12,4.302 5.151,7.173 0.95,2.646 1.715,5.336 1.853,8.18 0.156,3.182 0.288,6.361 -0.476,9.483 -1.085,4.432 -2.891,8.492 -6.269,11.716 -2.134,2.037 -4.68,3.189 -7.584,3.473 C 4.472,-0.152 2.232,-0.116 0,0 m -5.198,-51.993 c -3.487,0 -6.973,0.009 -10.46,-0.01 -0.459,-0.002 -0.783,0.123 -0.901,0.561 -0.13,0.481 -0.285,0.98 -0.284,1.471 0.031,10.584 0.091,21.169 0.126,31.754 0.016,4.936 0.047,9.873 -0.047,14.807 -0.036,1.888 -0.405,3.77 -0.623,5.655 -0.19,1.652 -0.367,3.305 -0.576,4.955 -0.087,0.684 0.199,0.88 0.849,0.884 5.724,0.034 11.447,0.094 17.171,0.139 1.339,0.01 2.684,0.072 4.016,-0.024 2.749,-0.199 5.525,0.006 8.244,-0.65 3.562,-0.861 6.887,-2.294 9.821,-4.445 2.996,-2.196 5.439,-4.932 7.15,-8.307 1.024,-2.022 2.05,-4.04 2.577,-6.235 0.481,-2.003 0.81,-4.06 0.991,-6.113 0.19,-2.152 0.139,-4.326 0.166,-6.492 0.032,-2.654 -0.616,-5.198 -1.358,-7.716 -0.658,-2.232 -1.391,-4.448 -2.743,-6.376 -1.248,-1.78 -2.465,-3.598 -3.888,-5.231 -1.233,-1.415 -2.719,-2.603 -4.323,-3.634 -2.24,-1.44 -4.579,-2.646 -7.113,-3.479 -2.31,-0.759 -4.666,-1.315 -7.097,-1.353 -3.898,-0.061 -7.799,-0.016 -11.698,-0.016 0,-0.048 0,-0.097 0,-0.145" /></g><g
           transform="translate(184.226,125.4802)"
           id="g52"><path
             id="path54"
             style="fill:#43734c;fill-opacity:1;fill-rule:nonzero;stroke:none"
             d="m 0,0 c 2.232,-0.116 4.472,-0.152 6.694,-0.369 2.904,-0.284 5.45,-1.436 7.584,-3.473 3.378,-3.224 5.184,-7.284 6.269,-11.716 0.764,-3.122 0.632,-6.301 0.476,-9.483 -0.138,-2.844 -0.903,-5.534 -1.853,-8.18 -1.031,-2.871 -2.955,-5.117 -5.151,-7.173 -1.702,-1.594 -3.692,-2.596 -5.955,-3.032 -1.146,-0.221 -2.323,-0.342 -3.491,-0.379 -2.767,-0.087 -5.537,-0.104 -8.306,-0.135 -1.623,-0.018 -1.892,0.256 -1.885,1.871 0.056,12.361 0.116,24.723 0.17,37.084 0.006,1.26 -0.026,2.521 -0.029,3.781 -0.002,0.863 0.206,1.078 1.039,1.081 1.477,0.005 2.955,0.002 4.433,0.002 C -0.003,-0.081 -0.002,-0.04 0,0" /></g></g></g></g></svg>